<svg xmlns="http://www.w3.org/2000/svg" xmlns:xlink="http://www.w3.org/1999/xlink" xmlns:lucid="lucid" width="1640" height="1220"><g transform="translate(-80 -140)" lucid:page-tab-id="0_0"><path d="M1300 766a6 6 0 0 1 6-6h388a6 6 0 0 1 6 6v148a6 6 0 0 1-6 6h-388a6 6 0 0 1-6-6z" stroke="#3a414a" stroke-width="4" fill="#dfe3e8"/><use xlink:href="#a" transform="matrix(1,0,0,1,1312,772) translate(140.51234567901236 75.88888888888889)"/><path d="M1280 746a6 6 0 0 1 6-6h388a6 6 0 0 1 6 6v148a6 6 0 0 1-6 6h-388a6 6 0 0 1-6-6z" stroke="#3a414a" stroke-width="4" fill="#ced4db"/><use xlink:href="#a" transform="matrix(1,0,0,1,1292,752) translate(140.51234567901236 75.88888888888889)"/><path d="M140 686a6 6 0 0 1 6-6h1028a6 6 0 0 1 6 6v488a6 6 0 0 1-6 6H146a6 6 0 0 1-6-6z" stroke="#3a414a" stroke-width="5" fill="#dfe3e8"/><path d="M120 666a6 6 0 0 1 6-6h1028a6 6 0 0 1 6 6v488a6 6 0 0 1-6 6H126a6 6 0 0 1-6-6z" stroke="#3a414a" stroke-width="5" fill="#ced4db"/><use xlink:href="#b" transform="matrix(1,0,0,1,132,672) translate(0 463.85157119999997)"/><path d="M100 646a6 6 0 0 1 6-6h1028a6 6 0 0 1 6 6v488a6 6 0 0 1-6 6H106a6 6 0 0 1-6-6z" stroke="#3a414a" stroke-width="5" fill="#cfe4ff"/><use xlink:href="#c" transform="matrix(1,0,0,1,112,652) translate(0 471.5175202222222)"/><path d="M240 666a6 6 0 0 1 6-6h708a6 6 0 0 1 6 6v88a6 6 0 0 1-6 6H246a6 6 0 0 1-6-6z" stroke="#3a414a" stroke-width="3" fill="#fff"/><use xlink:href="#d" transform="matrix(1,0,0,1,252,672) translate(254.65147569444446 47.878038194444436)"/><path d="M120 786a6 6 0 0 1 6-6h288a6 6 0 0 1 6 6v108a6 6 0 0 1-6 6H126a6 6 0 0 1-6-6z" stroke="#3a414a" stroke-width="3" fill="#fff"/><use xlink:href="#e" transform="matrix(1,0,0,1,132,792) translate(16.646918402777786 58.878038194444436)"/><use xlink:href="#f" transform="matrix(1,0,0,1,132,792) translate(109.99544270833333 58.878038194444436)"/><path d="M470 786a6 6 0 0 1 6-6h288a6 6 0 0 1 6 6v108a6 6 0 0 1-6 6H476a6 6 0 0 1-6-6z" stroke="#3a414a" stroke-width="3" fill="#fff"/><use xlink:href="#g" transform="matrix(1,0,0,1,482,792) translate(7.3120659722222285 58.878038194444436)"/><use xlink:href="#h" transform="matrix(1,0,0,1,482,792) translate(156.66970486111111 58.878038194444436)"/><path d="M820 786a6 6 0 0 1 6-6h288a6 6 0 0 1 6 6v108a6 6 0 0 1-6 6H826a6 6 0 0 1-6-6z" stroke="#3a414a" stroke-width="3" fill="#dfe3e8"/><use xlink:href="#i" transform="matrix(1,0,0,1,831.9999999999999,792) translate(53.986328125000014 58.878038194444436)"/><use xlink:href="#j" transform="matrix(1,0,0,1,831.9999999999999,792) translate(109.99544270833334 58.878038194444436)"/><path d="M280 966a6 6 0 0 1 6-6h288a6 6 0 0 1 6 6v108a6 6 0 0 1-6 6H286a6 6 0 0 1-6-6z" stroke="#3a414a" stroke-width="3" fill="#dfe3e8"/><use xlink:href="#k" transform="matrix(1,0,0,1,292,972) translate(91.32573784722223 40.878038194444436)"/><use xlink:href="#l" transform="matrix(1,0,0,1,292,972) translate(35.316623263888886 77.0933159722222)"/><path d="M650 966a6 6 0 0 1 6-6h288a6 6 0 0 1 6 6v108a6 6 0 0 1-6 6H656a6 6 0 0 1-6-6z" stroke="#3a414a" stroke-width="3" fill="#fff"/><use xlink:href="#m" transform="matrix(1,0,0,1,662,972) translate(91.32573784722223 58.878038194444436)"/><path d="M1260 726a6 6 0 0 1 6-6h388a6 6 0 0 1 6 6v148a6 6 0 0 1-6 6h-388a6 6 0 0 1-6-6z" stroke="#3a414a" stroke-width="4" fill="#cfe4ff"/><use xlink:href="#n" transform="matrix(1,0,0,1,1272,732) translate(131.99088541666669 79.87803819444443)"/><path d="M1320 856a6 6 0 0 1 6-6h268a6 6 0 0 1 6 6v88a6 6 0 0 1-6 6h-268a6 6 0 0 1-6-6z" stroke="#3a414a" stroke-width="3" fill="#fff"/><use xlink:href="#o" transform="matrix(1,0,0,1,1332,862) translate(109.33029513888889 47.878038194444436)"/><path d="M160 166a6 6 0 0 1 6-6h348a6 6 0 0 1 6 6v208a6 6 0 0 1-6 6H166a6 6 0 0 1-6-6z" stroke="#3a414a" stroke-width="3" fill="#cfe4ff"/><use xlink:href="#p" transform="matrix(1,0,0,1,171.99999999999977,172) translate(63.983072916666686 26.815321180555554)"/><use xlink:href="#q" transform="matrix(1,0,0,1,171.99999999999977,172) translate(220.00846354166666 26.815321180555554)"/><path d="M180 266a6 6 0 0 1 6-6h148a6 6 0 0 1 6 6v88a6 6 0 0 1-6 6H186a6 6 0 0 1-6-6z" stroke="#3a414a" stroke-width="2" fill="#fff"/><use xlink:href="#r" transform="matrix(1,0,0,1,192,272) translate(15.991536458333343 31.565321180555554)"/><use xlink:href="#s" transform="matrix(1,0,0,1,192,272) translate(7.3234592013889 65.19379340277777)"/><path d="M260 361.96v143.3a6 6 0 0 0 6 6h124.54" stroke="#3a414a" stroke-width="2" fill="none"/><path d="M261 362h-2v-1.04h2z" stroke="#3a414a" stroke-width=".05" fill="#3a414a"/><path d="M405.8 511.27l-14.26 4.64v-9.26z" stroke="#3a414a" stroke-width="2" fill="#3a414a"/><path d="M650 166a6 6 0 0 1 6-6h348a6 6 0 0 1 6 6v208a6 6 0 0 1-6 6H656a6 6 0 0 1-6-6z" stroke="#3a414a" stroke-width="3" fill="#cfe4ff"/><use xlink:href="#t" transform="matrix(1,0,0,1,661.9999999999998,172) translate(63.983072916666686 26.815321180555554)"/><use xlink:href="#q" transform="matrix(1,0,0,1,661.9999999999998,172) translate(220.00846354166666 26.815321180555554)"/><path d="M840 266a6 6 0 0 1 6-6h148a6 6 0 0 1 6 6v88a6 6 0 0 1-6 6H846a6 6 0 0 1-6-6z" stroke="#3a414a" stroke-width="2" fill="#fff"/><use xlink:href="#r" transform="matrix(1,0,0,1,851.9999999999999,272) translate(15.991536458333343 31.565321180555554)"/><use xlink:href="#s" transform="matrix(1,0,0,1,851.9999999999999,272) translate(7.3234592013889 65.19379340277777)"/><path d="M920 361.96v143.3a6 6 0 0 1-6 6H759.47" stroke="#3a414a" stroke-width="2" fill="none"/><path d="M921 362h-2v-1.04h2z" stroke="#3a414a" stroke-width=".05" fill="#3a414a"/><path d="M744.2 511.25l14.27-4.63v9.27z" stroke="#3a414a" stroke-width="2" fill="#3a414a"/><path d="M410 456.73a6 6 0 0 1 6-6h318a6 6 0 0 1 6 6v88a6 6 0 0 1-6 6H416a6 6 0 0 1-6-6z" stroke="#3a414a" stroke-width="2" fill="#dfe3e8"/><use xlink:href="#u" transform="matrix(1,0,0,1,421.99999999999955,462.7302317583393) translate(6.142686631944457 48.19032118055556)"/><use xlink:href="#v" transform="matrix(1,0,0,1,421.99999999999955,462.7302317583393) translate(144.83192274305554 48.19032118055556)"/><path d="M575 552.2v89.95" stroke="#3a414a" fill="none"/><path d="M575.5 552.2h-1v-.5h1z" stroke="#3a414a" stroke-width=".05" fill="#3a414a"/><path d="M575 656.92l-4.64-14.27h9.28z" stroke="#3a414a" fill="#3a414a"/><path d="M1139.97 840h99.58" stroke="#3a414a" stroke-width="2" fill="none"/><path d="M1124.7 840l14.27-4.64v9.28zM1254.82 840l-14.27 4.64v-9.28z" stroke="#3a414a" stroke-width="2" fill="#3a414a"/><path d="M244.88 640.07v-278.1" stroke="#3a414a" stroke-width="2" fill="none"/><path d="M244.88 655.34l-4.63-14.27h9.27z" stroke="#3a414a" stroke-width="2" fill="#3a414a"/><path d="M245.88 362h-2v-1.03h2z" stroke="#3a414a" stroke-width=".05" fill="#3a414a"/><path d="M946.07 657.5V379.45" stroke="#3a414a" stroke-width="2" fill="none"/><path d="M947.07 658.5h-2v-1.02h2z" stroke="#3a414a" stroke-width=".05" fill="#3a414a"/><path d="M946.07 364.2l4.63 14.25h-9.27z" stroke="#3a414a" stroke-width="2" fill="#3a414a"/><path d="M310 1226a6 6 0 0 1 6-6h228a6 6 0 0 1 6 6v108a6 6 0 0 1-6 6H316a6 6 0 0 1-6-6z" stroke="#3a414a" stroke-width="3" fill="#dfe3e8"/><use xlink:href="#w" transform="matrix(1,0,0,1,322,1232) translate(5.316623263888914 58.87803819444443)"/><path d="M430 1082.46v117.57" stroke="#3a414a" stroke-width="2" fill="none"/><path d="M431 1082.5h-2v-1.04h2z" stroke="#3a414a" stroke-width=".05" fill="#3a414a"/><path d="M430 1215.3l-4.64-14.27h9.28z" stroke="#3a414a" stroke-width="2" fill="#3a414a"/><path d="M880 1226a6 6 0 0 1 6-6h268a6 6 0 0 1 6 6v88a6 6 0 0 1-6 6H886a6 6 0 0 1-6-6z" stroke="#3a414a" stroke-width="3" fill="#dfe3e8"/><g><use xlink:href="#x" transform="matrix(1,0,0,1,892,1232) translate(43.986328125 47.878038194444436)"/><use xlink:href="#y" transform="matrix(1,0,0,1,892,1232) translate(174.67426215277777 47.878038194444436)"/></g><path d="M1020 1143.43v56.6" stroke="#3a414a" stroke-width="2" fill="none"/><path d="M1021 1143.46h-2v-1.03h2z" stroke="#3a414a" stroke-width=".05" fill="#3a414a"/><path d="M1020 1215.3l-4.64-14.27h9.28z" stroke="#3a414a" stroke-width="2" fill="#3a414a"/><defs><path fill="#3a414a" d="M160-131c35 5 61 23 61 61C221 17 115-2 30 0v-248c76 3 177-17 177 60 0 33-19 50-47 57zm-97-11c50-1 110 9 110-42 0-47-63-36-110-37v79zm0 115c55-2 124 14 124-45 0-56-70-42-124-44v89" id="z"/><path fill="#3a414a" d="M100-194c62-1 85 37 85 99 1 63-27 99-86 99S16-35 15-95c0-66 28-99 85-99zM99-20c44 1 53-31 53-75 0-43-8-75-51-75s-53 32-53 75 10 74 51 75" id="A"/><path fill="#3a414a" d="M143 0L79-87 56-68V0H24v-261h32v163l83-92h37l-77 82L181 0h-38" id="B"/><path fill="#3a414a" d="M24-231v-30h32v30H24zM24 0v-190h32V0H24" id="C"/><path fill="#3a414a" d="M100-194c63 0 86 42 84 106H49c0 40 14 67 53 68 26 1 43-12 49-29l28 8c-11 28-37 45-77 45C44 4 14-33 15-96c1-61 26-98 85-98zm52 81c6-60-76-77-97-28-3 7-6 17-6 28h103" id="D"/><g id="a"><use transform="matrix(0.08641975308641973,0,0,0.08641975308641973,0,0)" xlink:href="#z"/><use transform="matrix(0.08641975308641973,0,0,0.08641975308641973,20.740740740740737,0)" xlink:href="#A"/><use transform="matrix(0.08641975308641973,0,0,0.08641975308641973,38.02469135802468,0)" xlink:href="#A"/><use transform="matrix(0.08641975308641973,0,0,0.08641975308641973,55.30864197530863,0)" xlink:href="#B"/><use transform="matrix(0.08641975308641973,0,0,0.08641975308641973,70.86419753086419,0)" xlink:href="#C"/><use transform="matrix(0.08641975308641973,0,0,0.08641975308641973,77.69135802469135,0)" xlink:href="#D"/></g><path fill="#3a414a" d="M114-163C36-179 61-72 57 0H25l-1-190h30c1 12-1 29 2 39 6-27 23-49 58-41v29" id="E"/><g id="b"><use transform="matrix(0.11111111111111108,0,0,0.11111111111111108,0,0)" xlink:href="#z"/><use transform="matrix(0.11111111111111108,0,0,0.11111111111111108,26.666666666666657,0)" xlink:href="#E"/><use transform="matrix(0.11111111111111108,0,0,0.11111111111111108,39.88888888888887,0)" xlink:href="#A"/><use transform="matrix(0.11111111111111108,0,0,0.11111111111111108,62.11111111111109,0)" xlink:href="#B"/><use transform="matrix(0.11111111111111108,0,0,0.11111111111111108,82.11111111111109,0)" xlink:href="#D"/><use transform="matrix(0.11111111111111108,0,0,0.11111111111111108,104.3333333333333,0)" xlink:href="#E"/></g><path fill="#3a414a" d="M1137-424C1137-153 941 0 662 0H135v-1462c284 7 685-30 837 88 80 62 124 152 124 282 0 179-125 297-291 316v10c221 36 332 150 332 342zm-232-655c0-182-120-224-319-224H322v461h284c195-2 299-53 299-237zM322-686v528h307c207 0 311-91 311-274 0-169-108-254-324-254H322" id="F"/><path fill="#3a414a" d="M442-897c93-139 173-221 377-221 79 0 159 15 240 45l-49 166c-82-30-157-45-224-45-221 0-340 134-340 360V0H264v-1098h148l22 201h8" id="G"/><path fill="#3a414a" d="M1112-551c0 331-186 571-502 571-301 0-495-251-495-571 0-330 184-567 501-567 302 0 496 249 496 567zM614-131c207 0 310-140 310-420 0-277-104-416-312-416-206 0-309 139-309 416 0 280 104 420 311 420" id="H"/><path fill="#3a414a" d="M383-553l135-152 395-393h222L641-623 1163 0H950L524-504l-129 82V0H215v-1556h180c-3 337 9 689-16 1003h4" id="I"/><path fill="#3a414a" d="M631-1118c283 0 470 204 465 491v113H322c5 250 120 375 344 375 130 0 253-25 370-76v160C925-5 804 20 672 20c-329 0-539-224-539-561 0-331 182-577 498-577zM326-662h573c0-203-91-305-272-305-183 0-284 102-301 305" id="J"/><g id="c"><use transform="matrix(0.017361111111111105,0,0,0.017361111111111105,0,0)" xlink:href="#F"/><use transform="matrix(0.017361111111111105,0,0,0.017361111111111105,21.336805555555546,0)" xlink:href="#G"/><use transform="matrix(0.017361111111111105,0,0,0.017361111111111105,42.67361111111109,0)" xlink:href="#H"/><use transform="matrix(0.017361111111111105,0,0,0.017361111111111105,64.01041666666664,0)" xlink:href="#I"/><use transform="matrix(0.017361111111111105,0,0,0.017361111111111105,85.34722222222219,0)" xlink:href="#J"/><use transform="matrix(0.017361111111111105,0,0,0.017361111111111105,106.68402777777773,0)" xlink:href="#G"/></g><path fill="#3a414a" d="M1147-745C1147-274 901 1 436 0H135v-1462h342c429-3 670 280 670 717zm-825-558v1143h96c355 0 532-193 532-579 0-376-164-564-493-564H322" id="K"/><path fill="#3a414a" d="M739-1436c0 71-43 115-106 115-71 0-107-38-107-115 0-76 36-114 107-114s106 38 106 114zM541-954l-269-21v-123h451v955l352 20V0H197v-123l344-20v-811" id="L"/><path fill="#3a414a" d="M1026-301c0 225-197 321-448 321-165 0-290-23-375-69v-166c129 57 252 86 370 86 183 0 275-54 275-162 0-38-16-71-49-99s-108-63-226-106c-156-57-253-112-293-160s-61-105-61-171c2-338 524-340 789-217l-60 149c-121-48-228-72-319-72-157 0-236 44-236 133 0 41 17 74 51 98s111 57 232 101c141 51 234 101 280 151s70 111 70 183" id="M"/><path fill="#3a414a" d="M1092-551c0 322-136 571-430 571-138 0-245-53-322-159h-12c24 220 7 402 12 631H158v-1590h147l27 148h8c73-112 181-168 322-168 294 0 430 246 430 567zM629-967c-241 0-288 156-289 416 0 151 24 259 70 323s120 97 221 97c181 0 272-141 272-422 0-276-91-414-274-414" id="N"/><path fill="#3a414a" d="M596-1118c288 2 430 92 430 366V0H895l-37-152h-8C752-34 680 17 483 20 272 23 135-98 135-307c0-221 170-337 510-348l203-7c15-197-55-305-244-305-98 0-207 27-328 82l-63-137c131-64 258-96 383-96zm-72 991c194 0 325-116 322-311v-99c-251 15-522-6-522 232 0 119 67 178 200 178" id="O"/><path fill="#3a414a" d="M1020-150v138C933 9 849 20 768 20 527 20 406-95 406-324v-637H139v-94l267-49 77-287h105v293h438v137H588v637c0 130 64 195 192 195 62 0 142-7 240-21" id="P"/><path fill="#3a414a" d="M172-543c0-365 197-575 553-575 119 0 231 20 336 59l-62 158c-100-38-189-57-268-57-247 0-371 138-371 413 0 271 120 406 361 406 105 0 212-21 321-62v160C953 0 843 20 713 20c-347 1-541-210-541-563" id="Q"/><path fill="#3a414a" d="M887 0v-707c0-173-79-260-238-260-205 0-307 133-307 398V0H160v-1556h182c-2 202 6 416-8 606h10c69-112 181-168 336-168 259 0 389 134 389 401V0H887" id="R"/><g id="d"><use transform="matrix(0.015190972222222219,0,0,0.015190972222222219,0,0)" xlink:href="#K"/><use transform="matrix(0.015190972222222219,0,0,0.015190972222222219,18.669704861111107,0)" xlink:href="#L"/><use transform="matrix(0.015190972222222219,0,0,0.015190972222222219,37.339409722222214,0)" xlink:href="#M"/><use transform="matrix(0.015190972222222219,0,0,0.015190972222222219,56.00911458333332,0)" xlink:href="#N"/><use transform="matrix(0.015190972222222219,0,0,0.015190972222222219,74.67881944444443,0)" xlink:href="#O"/><use transform="matrix(0.015190972222222219,0,0,0.015190972222222219,93.34852430555554,0)" xlink:href="#P"/><use transform="matrix(0.015190972222222219,0,0,0.015190972222222219,112.01822916666666,0)" xlink:href="#Q"/><use transform="matrix(0.015190972222222219,0,0,0.015190972222222219,130.68793402777777,0)" xlink:href="#R"/><use transform="matrix(0.015190972222222219,0,0,0.015190972222222219,149.35763888888889,0)" xlink:href="#J"/><use transform="matrix(0.015190972222222219,0,0,0.015190972222222219,168.02734375,0)" xlink:href="#G"/></g><path fill="#3a414a" d="M233 0v-1462h187v1296h635V0H233" id="S"/><path fill="#3a414a" d="M137-547c0-322 136-571 430-571 137 0 245 53 322 160h12c-24-215-7-376-12-598h182V0H924l-27-147h-8C814-36 706 20 567 20c-294 0-430-246-430-567zm463 416c241 0 288-157 289-416 0-151-23-259-69-323s-121-97-222-97c-181 0-272 141-272 422 0 276 91 414 274 414" id="T"/><g id="e"><use transform="matrix(0.015190972222222219,0,0,0.015190972222222219,0,0)" xlink:href="#S"/><use transform="matrix(0.015190972222222219,0,0,0.015190972222222219,18.669704861111107,0)" xlink:href="#H"/><use transform="matrix(0.015190972222222219,0,0,0.015190972222222219,37.339409722222214,0)" xlink:href="#O"/><use transform="matrix(0.015190972222222219,0,0,0.015190972222222219,56.00911458333332,0)" xlink:href="#T"/></g><path fill="#3a414a" d="M532-1413l-268-21v-122h451v1413l352 20V0H188v-123l344-20v-1270" id="U"/><path fill="#3a414a" d="M887 0v-707c0-173-79-260-238-260-205 0-307 133-307 398V0H160v-1098h147l27 148h10c69-112 181-168 336-168 259 0 389 134 389 401V0H887" id="V"/><g id="f"><use transform="matrix(0.015190972222222219,0,0,0.015190972222222219,0,0)" xlink:href="#F"/><use transform="matrix(0.015190972222222219,0,0,0.015190972222222219,18.669704861111107,0)" xlink:href="#O"/><use transform="matrix(0.015190972222222219,0,0,0.015190972222222219,37.339409722222214,0)" xlink:href="#U"/><use transform="matrix(0.015190972222222219,0,0,0.015190972222222219,56.00911458333332,0)" xlink:href="#O"/><use transform="matrix(0.015190972222222219,0,0,0.015190972222222219,74.67881944444443,0)" xlink:href="#V"/><use transform="matrix(0.015190972222222219,0,0,0.015190972222222219,93.34852430555554,0)" xlink:href="#Q"/><use transform="matrix(0.015190972222222219,0,0,0.015190972222222219,112.01822916666666,0)" xlink:href="#J"/><use transform="matrix(0.015190972222222219,0,0,0.015190972222222219,130.68793402777777,0)" xlink:href="#G"/></g><path fill="#3a414a" d="M532 0L254-1280h-8c34 456 12 817 18 1280H113v-1462h247L608-270h6l250-1192h252V0H963c5-467-12-807 14-1278h-8L686 0H532" id="W"/><path fill="#3a414a" d="M188-739c-1-248 156-381 410-379 57 0 107 7 150 20h378v113l-196 27c43 57 65 128 65 213 2 253-212 385-489 346-67 37-100 82-100 133 0 56 54 84 161 84h187c216-2 358 93 358 297 0 251-188 377-565 377-145 0-255-26-331-80S102 283 102 186c0-141 80-231 240-270-64-31-96-83-96-154 0-75 44-139 133-192-109-41-191-166-191-309zm406 221c149 0 223-77 223-230 0-159-75-239-225-239s-225 81-225 242c0 151 76 227 227 227zm346 649c0-146-78-149-248-149H504c-153 0-230 66-230 198 0 116 90 174 271 174 263 0 395-74 395-223" id="X"/><g id="g"><use transform="matrix(0.015190972222222219,0,0,0.015190972222222219,0,0)" xlink:href="#W"/><use transform="matrix(0.015190972222222219,0,0,0.015190972222222219,18.669704861111107,0)" xlink:href="#O"/><use transform="matrix(0.015190972222222219,0,0,0.015190972222222219,37.339409722222214,0)" xlink:href="#V"/><use transform="matrix(0.015190972222222219,0,0,0.015190972222222219,56.00911458333332,0)" xlink:href="#O"/><use transform="matrix(0.015190972222222219,0,0,0.015190972222222219,74.67881944444443,0)" xlink:href="#X"/><use transform="matrix(0.015190972222222219,0,0,0.015190972222222219,93.34852430555554,0)" xlink:href="#J"/><use transform="matrix(0.015190972222222219,0,0,0.015190972222222219,112.01822916666666,0)" xlink:href="#T"/></g><g id="h"><use transform="matrix(0.015190972222222219,0,0,0.015190972222222219,0,0)" xlink:href="#S"/><use transform="matrix(0.015190972222222219,0,0,0.015190972222222219,18.669704861111107,0)" xlink:href="#J"/><use transform="matrix(0.015190972222222219,0,0,0.015190972222222219,37.339409722222214,0)" xlink:href="#T"/><use transform="matrix(0.015190972222222219,0,0,0.015190972222222219,56.00911458333332,0)" xlink:href="#X"/><use transform="matrix(0.015190972222222219,0,0,0.015190972222222219,74.67881944444443,0)" xlink:href="#J"/><use transform="matrix(0.015190972222222219,0,0,0.015190972222222219,93.34852430555554,0)" xlink:href="#G"/></g><path fill="#3a414a" d="M1198 0H987L537-698 397-584V0H211v-1462h186v731l121-168 453-563h209L659-825" id="Y"/><g id="i"><use transform="matrix(0.015190972222222219,0,0,0.015190972222222219,0,0)" xlink:href="#F"/><use transform="matrix(0.015190972222222219,0,0,0.015190972222222219,18.669704861111107,0)" xlink:href="#Y"/></g><path fill="#3a414a" d="M326-731c0 353 139 584 471 588 87 0 196-19 327-58v162c-97 39-217 59-358 59-433-1-637-301-637-753 0-438 243-750 668-750 147 0 274 29 383 86l-78 156c-103-52-204-78-305-78-307 1-471 259-471 588" id="Z"/><g id="j"><use transform="matrix(0.015190972222222219,0,0,0.015190972222222219,0,0)" xlink:href="#Z"/><use transform="matrix(0.015190972222222219,0,0,0.015190972222222219,18.669704861111107,0)" xlink:href="#U"/><use transform="matrix(0.015190972222222219,0,0,0.015190972222222219,37.339409722222214,0)" xlink:href="#L"/><use transform="matrix(0.015190972222222219,0,0,0.015190972222222219,56.00911458333332,0)" xlink:href="#J"/><use transform="matrix(0.015190972222222219,0,0,0.015190972222222219,74.67881944444443,0)" xlink:href="#V"/><use transform="matrix(0.015190972222222219,0,0,0.015190972222222219,93.34852430555554,0)" xlink:href="#P"/></g><path fill="#3a414a" d="M117-733c0-430 204-749 608-750 128 0 243 29 346 86l-72 162c-205-125-452-118-579 71-70 104-107 248-107 433 0 486 207 665 596 559v-436H672v-164h422v717C964-5 824 20 674 20c-175 0-312-67-410-200S117-497 117-733" id="aa"/><path fill="#3a414a" d="M1092-551c0 322-136 571-430 571-138 0-245-53-322-159h-12L291 0H158v-1556h182c-2 221 6 379-8 602h8c71-109 179-164 322-164 294 0 430 246 430 567zM629-967c-241 0-289 146-289 416 0 151 24 259 70 323s120 97 221 97c181 0 272-141 272-422 0-276-91-414-274-414" id="ab"/><g id="k"><use transform="matrix(0.015190972222222219,0,0,0.015190972222222219,0,0)" xlink:href="#aa"/><use transform="matrix(0.015190972222222219,0,0,0.015190972222222219,18.669704861111107,0)" xlink:href="#H"/><use transform="matrix(0.015190972222222219,0,0,0.015190972222222219,37.339409722222214,0)" xlink:href="#ab"/><use transform="matrix(0.015190972222222219,0,0,0.015190972222222219,56.00911458333332,0)" xlink:href="#O"/><use transform="matrix(0.015190972222222219,0,0,0.015190972222222219,74.67881944444443,0)" xlink:href="#U"/></g><path fill="#3a414a" d="M373-604V0H186v-1462h357c347 0 520 138 520 415 0 191-96 322-289 392L1171 0H952L602-604H373zm497-434c0-207-118-263-338-265H373v541h164c215-1 333-70 333-276" id="ac"/><g id="l"><use transform="matrix(0.015190972222222219,0,0,0.015190972222222219,0,0)" xlink:href="#ac"/><use transform="matrix(0.015190972222222219,0,0,0.015190972222222219,18.669704861111107,0)" xlink:href="#J"/><use transform="matrix(0.015190972222222219,0,0,0.015190972222222219,37.339409722222214,0)" xlink:href="#N"/><use transform="matrix(0.015190972222222219,0,0,0.015190972222222219,56.00911458333332,0)" xlink:href="#U"/><use transform="matrix(0.015190972222222219,0,0,0.015190972222222219,74.67881944444443,0)" xlink:href="#L"/><use transform="matrix(0.015190972222222219,0,0,0.015190972222222219,93.34852430555554,0)" xlink:href="#Q"/><use transform="matrix(0.015190972222222219,0,0,0.015190972222222219,112.01822916666666,0)" xlink:href="#O"/><use transform="matrix(0.015190972222222219,0,0,0.015190972222222219,130.68793402777777,0)" xlink:href="#P"/><use transform="matrix(0.015190972222222219,0,0,0.015190972222222219,149.35763888888889,0)" xlink:href="#H"/><use transform="matrix(0.015190972222222219,0,0,0.015190972222222219,168.02734375,0)" xlink:href="#G"/><use transform="matrix(0.015190972222222219,0,0,0.015190972222222219,186.69704861111111,0)" xlink:href="#M"/></g><g id="m"><use transform="matrix(0.015190972222222219,0,0,0.015190972222222219,0,0)" xlink:href="#Z"/><use transform="matrix(0.015190972222222219,0,0,0.015190972222222219,18.669704861111107,0)" xlink:href="#O"/><use transform="matrix(0.015190972222222219,0,0,0.015190972222222219,37.339409722222214,0)" xlink:href="#Q"/><use transform="matrix(0.015190972222222219,0,0,0.015190972222222219,56.00911458333332,0)" xlink:href="#R"/><use transform="matrix(0.015190972222222219,0,0,0.015190972222222219,74.67881944444443,0)" xlink:href="#J"/></g><g id="n"><use transform="matrix(0.015190972222222219,0,0,0.015190972222222219,0,0)" xlink:href="#F"/><use transform="matrix(0.015190972222222219,0,0,0.015190972222222219,18.669704861111107,0)" xlink:href="#H"/><use transform="matrix(0.015190972222222219,0,0,0.015190972222222219,37.339409722222214,0)" xlink:href="#H"/><use transform="matrix(0.015190972222222219,0,0,0.015190972222222219,56.00911458333332,0)" xlink:href="#I"/><use transform="matrix(0.015190972222222219,0,0,0.015190972222222219,74.67881944444443,0)" xlink:href="#L"/><use transform="matrix(0.015190972222222219,0,0,0.015190972222222219,93.34852430555554,0)" xlink:href="#J"/></g><path fill="#3a414a" d="M1124 0H102v-145l793-1151H123v-166h981v145L311-166h813V0" id="ad"/><g id="o"><use transform="matrix(0.015190972222222219,0,0,0.015190972222222219,0,0)" xlink:href="#ad"/><use transform="matrix(0.015190972222222219,0,0,0.015190972222222219,18.669704861111107,0)" xlink:href="#Y"/></g><path fill="#3a414a" d="M1094-1034c0 310-213 470-541 465H362V0H176v-1462h404c343 0 514 143 514 428zM532-727c244-1 369-71 369-297 0-186-113-279-338-279H362v576h170" id="ae"/><path fill="#3a414a" d="M578-131c239 0 309-137 309-397v-570h182V0H922l-27-147h-10C815-36 704 20 551 20c-261 0-391-134-391-401v-717h182v707c0 173 79 260 236 260" id="af"/><g id="p"><use transform="matrix(0.014105902777777776,0,0,0.014105902777777776,0,0)" xlink:href="#ae"/><use transform="matrix(0.014105902777777776,0,0,0.014105902777777776,17.336154513888886,0)" xlink:href="#G"/><use transform="matrix(0.014105902777777776,0,0,0.014105902777777776,34.67230902777777,0)" xlink:href="#H"/><use transform="matrix(0.014105902777777776,0,0,0.014105902777777776,52.00846354166666,0)" xlink:href="#T"/><use transform="matrix(0.014105902777777776,0,0,0.014105902777777776,69.34461805555554,0)" xlink:href="#af"/><use transform="matrix(0.014105902777777776,0,0,0.014105902777777776,86.68077256944443,0)" xlink:href="#Q"/><use transform="matrix(0.014105902777777776,0,0,0.014105902777777776,104.01692708333331,0)" xlink:href="#J"/><use transform="matrix(0.014105902777777776,0,0,0.014105902777777776,121.35308159722221,0)" xlink:href="#G"/></g><path fill="#3a414a" d="M1004 0L860-453H369L223 0H33l483-1468h195L1196 0h-192zM807-618c-63-210-144-435-195-650-51 232-127 431-190 650h385" id="ag"/><g id="q"><use transform="matrix(0.014105902777777776,0,0,0.014105902777777776,0,0)" xlink:href="#ag"/><use transform="matrix(0.014105902777777776,0,0,0.014105902777777776,17.336154513888886,0)" xlink:href="#N"/><use transform="matrix(0.014105902777777776,0,0,0.014105902777777776,34.67230902777777,0)" xlink:href="#N"/></g><g id="r"><use transform="matrix(0.014105902777777776,0,0,0.014105902777777776,0,0)" xlink:href="#ae"/><use transform="matrix(0.014105902777777776,0,0,0.014105902777777776,17.336154513888886,0)" xlink:href="#af"/><use transform="matrix(0.014105902777777776,0,0,0.014105902777777776,34.67230902777777,0)" xlink:href="#U"/><use transform="matrix(0.014105902777777776,0,0,0.014105902777777776,52.00846354166666,0)" xlink:href="#M"/><use transform="matrix(0.014105902777777776,0,0,0.014105902777777776,69.34461805555554,0)" xlink:href="#O"/><use transform="matrix(0.014105902777777776,0,0,0.014105902777777776,86.68077256944443,0)" xlink:href="#G"/></g><path fill="#3a414a" d="M82-1098h188l262 654c55 137 84 233 89 290h6c15-75 45-172 90-292l239-652h189L670 143c-45 116-99 201-156 261-87 92-259 104-414 71V330c92 17 226 18 286-29 67-53 115-195 153-291" id="ah"/><g id="s"><use transform="matrix(0.014105902777777776,0,0,0.014105902777777776,0,0)" xlink:href="#S"/><use transform="matrix(0.014105902777777776,0,0,0.014105902777777776,17.336154513888886,0)" xlink:href="#L"/><use transform="matrix(0.014105902777777776,0,0,0.014105902777777776,34.67230902777777,0)" xlink:href="#ab"/><use transform="matrix(0.014105902777777776,0,0,0.014105902777777776,52.00846354166666,0)" xlink:href="#G"/><use transform="matrix(0.014105902777777776,0,0,0.014105902777777776,69.34461805555554,0)" xlink:href="#O"/><use transform="matrix(0.014105902777777776,0,0,0.014105902777777776,86.68077256944443,0)" xlink:href="#G"/><use transform="matrix(0.014105902777777776,0,0,0.014105902777777776,104.01692708333331,0)" xlink:href="#ah"/></g><path fill="#3a414a" d="M977 0v-707c0-97-9-165-27-203s-47-57-88-57c-58 0-100 28-126 83s-40 148-40 278V0H535v-707c0-173-42-260-125-260-56 0-96 26-120 79s-36 160-36 319V0H92v-1098h127l27 148h10c45-112 112-168 201-168 109 0 180 61 213 182h6c51-121 124-182 219-182 85 0 147 30 186 92s58 165 58 309V0H977" id="ai"/><g id="t"><use transform="matrix(0.014105902777777776,0,0,0.014105902777777776,0,0)" xlink:href="#Z"/><use transform="matrix(0.014105902777777776,0,0,0.014105902777777776,17.336154513888886,0)" xlink:href="#H"/><use transform="matrix(0.014105902777777776,0,0,0.014105902777777776,34.67230902777777,0)" xlink:href="#V"/><use transform="matrix(0.014105902777777776,0,0,0.014105902777777776,52.00846354166666,0)" xlink:href="#M"/><use transform="matrix(0.014105902777777776,0,0,0.014105902777777776,69.34461805555554,0)" xlink:href="#af"/><use transform="matrix(0.014105902777777776,0,0,0.014105902777777776,86.68077256944443,0)" xlink:href="#ai"/><use transform="matrix(0.014105902777777776,0,0,0.014105902777777776,104.01692708333331,0)" xlink:href="#J"/><use transform="matrix(0.014105902777777776,0,0,0.014105902777777776,121.35308159722221,0)" xlink:href="#G"/></g><path fill="#3a414a" d="M1087-391c0 281-226 411-532 411-177 0-315-23-414-69v-178c141 57 279 86 414 86 233 0 350-80 350-240 0-69-24-123-71-160s-142-82-285-133c-139-49-239-106-299-174s-90-156-90-264c2-252 211-371 481-371 153 0 291 26 416 78l-64 164c-129-52-249-78-360-78-195 0-293 70-293 209 0 68 22 123 66 164s134 85 270 133c164 58 273 119 328 181s83 143 83 241" id="aj"/><path fill="#3a414a" d="M498 0L82-1098h188l240 652c57 154 90 262 100 325h6c67-256 244-708 340-977h189L729 0H498" id="ak"/><g id="u"><use transform="matrix(0.014105902777777776,0,0,0.014105902777777776,0,0)" xlink:href="#aj"/><use transform="matrix(0.014105902777777776,0,0,0.014105902777777776,17.336154513888886,0)" xlink:href="#J"/><use transform="matrix(0.014105902777777776,0,0,0.014105902777777776,34.67230902777777,0)" xlink:href="#G"/><use transform="matrix(0.014105902777777776,0,0,0.014105902777777776,52.00846354166666,0)" xlink:href="#ak"/><use transform="matrix(0.014105902777777776,0,0,0.014105902777777776,69.34461805555554,0)" xlink:href="#L"/><use transform="matrix(0.014105902777777776,0,0,0.014105902777777776,86.68077256944443,0)" xlink:href="#Q"/><use transform="matrix(0.014105902777777776,0,0,0.014105902777777776,104.01692708333331,0)" xlink:href="#J"/></g><g id="v"><use transform="matrix(0.014105902777777776,0,0,0.014105902777777776,0,0)" xlink:href="#K"/><use transform="matrix(0.014105902777777776,0,0,0.014105902777777776,17.336154513888886,0)" xlink:href="#L"/><use transform="matrix(0.014105902777777776,0,0,0.014105902777777776,34.67230902777777,0)" xlink:href="#M"/><use transform="matrix(0.014105902777777776,0,0,0.014105902777777776,52.00846354166666,0)" xlink:href="#Q"/><use transform="matrix(0.014105902777777776,0,0,0.014105902777777776,69.34461805555554,0)" xlink:href="#H"/><use transform="matrix(0.014105902777777776,0,0,0.014105902777777776,86.68077256944443,0)" xlink:href="#ak"/><use transform="matrix(0.014105902777777776,0,0,0.014105902777777776,104.01692708333331,0)" xlink:href="#J"/><use transform="matrix(0.014105902777777776,0,0,0.014105902777777776,121.35308159722221,0)" xlink:href="#G"/><use transform="matrix(0.014105902777777776,0,0,0.014105902777777776,138.6892361111111,0)" xlink:href="#ah"/></g><g id="w"><use transform="matrix(0.015190972222222215,0,0,0.015190972222222215,0,0)" xlink:href="#ac"/><use transform="matrix(0.015190972222222215,0,0,0.015190972222222215,18.669704861111104,0)" xlink:href="#J"/><use transform="matrix(0.015190972222222215,0,0,0.015190972222222215,37.33940972222221,0)" xlink:href="#N"/><use transform="matrix(0.015190972222222215,0,0,0.015190972222222215,56.009114583333314,0)" xlink:href="#U"/><use transform="matrix(0.015190972222222215,0,0,0.015190972222222215,74.67881944444441,0)" xlink:href="#L"/><use transform="matrix(0.015190972222222215,0,0,0.015190972222222215,93.34852430555551,0)" xlink:href="#Q"/><use transform="matrix(0.015190972222222215,0,0,0.015190972222222215,112.01822916666661,0)" xlink:href="#O"/><use transform="matrix(0.015190972222222215,0,0,0.015190972222222215,130.68793402777771,0)" xlink:href="#P"/><use transform="matrix(0.015190972222222215,0,0,0.015190972222222215,149.35763888888883,0)" xlink:href="#L"/><use transform="matrix(0.015190972222222215,0,0,0.015190972222222215,168.02734374999994,0)" xlink:href="#H"/><use transform="matrix(0.015190972222222215,0,0,0.015190972222222215,186.69704861111106,0)" xlink:href="#V"/></g><g id="x"><use transform="matrix(0.015190972222222219,0,0,0.015190972222222219,0,0)" xlink:href="#aa"/><use transform="matrix(0.015190972222222219,0,0,0.015190972222222219,18.669704861111107,0)" xlink:href="#U"/><use transform="matrix(0.015190972222222219,0,0,0.015190972222222219,37.339409722222214,0)" xlink:href="#H"/><use transform="matrix(0.015190972222222219,0,0,0.015190972222222219,56.00911458333332,0)" xlink:href="#ab"/><use transform="matrix(0.015190972222222219,0,0,0.015190972222222219,74.67881944444443,0)" xlink:href="#O"/><use transform="matrix(0.015190972222222219,0,0,0.015190972222222219,93.34852430555554,0)" xlink:href="#U"/></g><g id="y"><use transform="matrix(0.015190972222222219,0,0,0.015190972222222219,0,0)" xlink:href="#ad"/><use transform="matrix(0.015190972222222219,0,0,0.015190972222222219,18.669704861111107,0)" xlink:href="#Y"/></g></defs></g></svg>