<svg version="1.1" viewBox="0.0 0.0 960.0 540.0" fill="none" stroke="none" stroke-linecap="square" stroke-miterlimit="10" xmlns:xlink="http://www.w3.org/1999/xlink" xmlns="http://www.w3.org/2000/svg"><clipPath id="g11f6d29015b_3_55.0"><path d="m0 0l960.0 0l0 540.0l-960.0 0l0 -540.0z" clip-rule="nonzero"/></clipPath><g clip-path="url(#g11f6d29015b_3_55.0)"><path fill="#000000" fill-opacity="0.0" d="m0 0l960.0 0l0 540.0l-960.0 0z" fill-rule="evenodd"/><path fill="#ffffff" d="m401.95276 20.566929l156.09448 0l0 498.86612l-156.09448 0z" fill-rule="evenodd"/><path stroke="#595959" stroke-width="1.0" stroke-linejoin="round" stroke-linecap="butt" d="m401.95276 20.566929l156.09448 0l0 498.86612l-156.09448 0z" fill-rule="evenodd"/><path fill="#ffffff" d="m413.43832 33.228348l133.92123 0l0 473.54333l-133.92123 0z" fill-rule="evenodd"/><path stroke="#595959" stroke-width="1.0" stroke-linejoin="round" stroke-linecap="butt" d="m413.43832 33.228348l133.92123 0l0 473.54333l-133.92123 0z" fill-rule="evenodd"/><path fill="#eeeeee" d="m434.96588 48.514435l90.86615 0l0 134.99213l-90.86615 0z" fill-rule="evenodd"/><path stroke="#595959" stroke-width="1.0" stroke-linejoin="round" stroke-linecap="butt" d="m434.96588 48.514435l90.86615 0l0 134.99213l-90.86615 0z" fill-rule="evenodd"/><path fill="#ffffff" d="m459.13385 73.527084l41.7323 0l0 44.314964l-41.7323 0z" fill-rule="evenodd"/><path stroke="#595959" stroke-width="1.0" stroke-linejoin="round" stroke-linecap="butt" d="m459.13385 73.527084l41.7323 0l0 44.314964l-41.7323 0z" fill-rule="evenodd"/><path fill="#595959" d="m471.32135 96.88707l2.421875 0q0.828125 -0.015625 1.5625 -0.25q0.75 -0.25 1.3125 -0.71875q0.546875 -0.46875 0.875 -1.140625q0.328125 -0.6875 0.328125 -1.578125q0 -0.890625 -0.328125 -1.5625q-0.328125 -0.6875 -0.875 -1.15625q-0.5625 -0.46875 -1.3125 -0.703125q-0.734375 -0.25 -1.5625 -0.265625l-4.0 0l0 12.3125l1.578125 0l0 -4.9375zm0 -1.296875l0 -4.796875l2.421875 0q0.546875 0 1.0 0.171875q0.46875 0.171875 0.796875 0.484375q0.328125 0.3125 0.515625 0.765625q0.203125 0.453125 0.203125 1.0q0 0.5625 -0.203125 1.0q-0.1875 0.4375 -0.515625 0.734375q-0.34375 0.3125 -0.796875 0.484375q-0.453125 0.15625 -1.0 0.15625l-2.421875 0zm16.414215 1.515625l0 -2.875q0 -1.1875 -0.265625 -2.09375q-0.265625 -0.90625 -0.78125 -1.53125q-0.515625 -0.625 -1.265625 -0.953125q-0.734375 -0.328125 -1.671875 -0.328125q-0.953125 0 -1.6875 0.328125q-0.734375 0.328125 -1.25 0.953125q-0.515625 0.625 -0.78125 1.53125q-0.265625 0.90625 -0.265625 2.09375l0 2.875q0 1.1875 0.265625 2.09375q0.265625 0.90625 0.78125 1.53125q0.515625 0.625 1.265625 0.953125q0.75 0.3125 1.6875 0.3125q0.9375 0 1.671875 -0.3125q0.75 -0.328125 1.25 -0.953125q0.515625 -0.625 0.78125 -1.53125q0.265625 -0.90625 0.265625 -2.09375zm-6.40625 -0.3125q0 -0.21875 0 -0.421875q0 -0.21875 0 -0.421875l0 -2.0625q0 -0.875 0.171875 -1.53125q0.171875 -0.65625 0.53125 -1.0625q0.296875 -0.328125 0.71875 -0.5q0.4375 -0.171875 1.0 -0.171875q0.546875 0 0.953125 0.15625q0.421875 0.15625 0.71875 0.484375q0.296875 0.3125 0.46875 0.78125q0.171875 0.46875 0.234375 1.078125l-4.796875 3.671875zm4.828125 0.65625q0 0.890625 -0.1875 1.5625q-0.171875 0.671875 -0.5625 1.09375q-0.28125 0.296875 -0.703125 0.46875q-0.40625 0.15625 -0.9375 0.15625q-0.515625 0 -0.921875 -0.140625q-0.40625 -0.15625 -0.6875 -0.453125q-0.3125 -0.296875 -0.515625 -0.765625q-0.1875 -0.46875 -0.265625 -1.09375l4.78125 -3.65625q0 0.234375 0 0.59375q0 0.359375 0 0.484375l0 1.75z" fill-rule="nonzero"/><path fill="#000000" fill-opacity="0.0" d="m434.96588 43.24147l90.86615 0l0 35.55905l-90.86615 0z" fill-rule="evenodd"/><path fill="#000000" d="m445.09088 65.041466l3.03125 0q0.59375 0 1.15625 -0.1875q0.578125 -0.1875 1.015625 -0.53125q0.4375 -0.3281212 0.6875 -0.8281212q0.265625 -0.515625 0.265625 -1.1875q0 -0.421875 -0.125 -0.78125q-0.125 -0.375 -0.359375 -0.65625q-0.203125 -0.265625 -0.546875 -0.484375q-0.328125 -0.234375 -0.6875 -0.3125l0 -0.015625q0.34375 -0.15625 0.578125 -0.328125q0.25 -0.171875 0.453125 -0.421875q0.203125 -0.234375 0.3125 -0.53125q0.109375 -0.3125 0.125 -0.6875q0 -0.65625 -0.265625 -1.125q-0.25 -0.484375 -0.6875 -0.796875q-0.4375 -0.296875 -1.0 -0.4375q-0.5625 -0.15625 -1.140625 -0.15625l-2.8125 0l0 9.468746zm1.203125 -4.437496l1.921875 0q0.390625 0.015625 0.71875 0.140625q0.328125 0.109375 0.578125 0.328125q0.25 0.21875 0.390625 0.53125q0.140625 0.3125 0.125 0.71875q0 0.390625 -0.15625 0.703125q-0.140625 0.3125 -0.40625 0.53125q-0.265625 0.21875 -0.609375 0.34375q-0.328125 0.109371185 -0.703125 0.124996185l-1.859375 0l0 -3.4218712zm0 -1.0l0 -3.015625l1.640625 0q0.359375 0.015625 0.6875 0.109375q0.34375 0.078125 0.609375 0.25q0.25 0.1875 0.390625 0.46875q0.15625 0.265625 0.15625 0.671875q0 0.359375 -0.15625 0.640625q-0.15625 0.28125 -0.40625 0.46875q-0.25 0.203125 -0.578125 0.3125q-0.328125 0.09375 -0.65625 0.09375l-1.6875 0zm11.420044 -1.734375q-0.765625 0 -1.375 0.34375q-0.59375 0.328125 -1.03125 0.90625l0 -0.171875l-0.0625 -0.953125l-1.140625 0l0 7.046871l1.203125 0l0 -4.515621q0.125 -0.328125 0.296875 -0.59375q0.1875 -0.265625 0.421875 -0.4375q0.265625 -0.21875 0.625 -0.3125q0.359375 -0.109375 0.8125 -0.109375q0.34375 0 0.65625 0.03125q0.3125 0.03125 0.65625 0.109375l0.171875 -1.171875q-0.1875 -0.078125 -0.546875 -0.125q-0.359375 -0.046875 -0.6875 -0.046875zm3.0450745 3.59375l0 0.140625q0 0.75 0.21875 1.40625q0.21875 0.65625 0.640625 1.1406212q0.40625 0.46875 1.0 0.75q0.59375 0.265625 1.34375 0.265625q0.75 0 1.328125 -0.265625q0.59375 -0.28125 1.015625 -0.75q0.40625 -0.4843712 0.625 -1.1406212q0.234375 -0.65625 0.234375 -1.40625l0 -0.140625q0 -0.765625 -0.234375 -1.421875q-0.21875 -0.65625 -0.625 -1.140625q-0.421875 -0.484375 -1.015625 -0.75q-0.59375 -0.28125 -1.34375 -0.28125q-0.734375 0 -1.328125 0.28125q-0.59375 0.265625 -1.0 0.75q-0.421875 0.484375 -0.640625 1.140625q-0.21875 0.65625 -0.21875 1.421875zm1.203125 0.140625l0 -0.140625q0 -0.515625 0.125 -0.984375q0.125 -0.484375 0.375 -0.84375q0.25 -0.359375 0.609375 -0.5625q0.375 -0.21875 0.875 -0.21875q0.5 0 0.875 0.21875q0.375 0.203125 0.640625 0.5625q0.234375 0.359375 0.359375 0.84375q0.140625 0.46875 0.140625 0.984375l0 0.140625q0 0.515625 -0.125 0.984375q-0.125 0.46875 -0.375 0.828125q-0.25 0.359375 -0.625 0.578125q-0.375 0.20312119 -0.875 0.20312119q-0.5 0 -0.875 -0.20312119q-0.375 -0.21875 -0.625 -0.578125q-0.25 -0.359375 -0.375 -0.828125q-0.125 -0.46875 -0.125 -0.984375zm9.232544 0.15625l2.59375 3.2812462l1.53125 0l-3.296875 -4.109371l2.859375 -2.9375l-1.46875 0l-2.3125 2.328125l-0.78125 0.84375l0 -6.125l-1.21875 0l0 9.999996l1.21875 0l0 -2.4374962l0.875 -0.84375zm9.013824 3.4062462q1.015625 0 1.71875 -0.40625q0.703125 -0.421875 1.046875 -0.9531212l-0.734375 -0.5625q-0.328125 0.421875 -0.828125 0.6875q-0.5 0.24999619 -1.140625 0.24999619q-0.5 0 -0.90625 -0.171875q-0.390625 -0.18749619 -0.671875 -0.4999962q-0.28125 -0.296875 -0.453125 -0.6875q-0.15625 -0.390625 -0.203125 -0.90625l0 -0.046875l5.03125 0l0 -0.546875q0 -0.734375 -0.1875 -1.359375q-0.1875 -0.640625 -0.5625 -1.109375q-0.375 -0.453125 -0.953125 -0.71875q-0.5625 -0.265625 -1.3125 -0.265625q-0.609375 0 -1.1875 0.25q-0.578125 0.25 -1.03125 0.703125q-0.453125 0.46875 -0.734375 1.140625q-0.265625 0.671875 -0.265625 1.53125l0 0.265625q0 0.75 0.25 1.375q0.25 0.625 0.6875 1.0781212q0.453125 0.453125 1.0625 0.703125q0.625 0.25 1.375 0.25zm-0.15625 -6.312496q0.453125 0 0.78125 0.171875q0.34375 0.171875 0.5625 0.4375q0.21875 0.28125 0.34375 0.65625q0.125 0.375 0.125 0.703125l0 0.046875l-3.78125 0q0.0625 -0.484375 0.234375 -0.859375q0.1875 -0.375 0.453125 -0.625q0.265625 -0.265625 0.578125 -0.390625q0.328125 -0.140625 0.703125 -0.140625zm9.654419 -0.984375q-0.765625 0 -1.375 0.34375q-0.59375 0.328125 -1.03125 0.90625l0 -0.171875l-0.0625 -0.953125l-1.140625 0l0 7.046871l1.203125 0l0 -4.515621q0.125 -0.328125 0.296875 -0.59375q0.1875 -0.265625 0.421875 -0.4375q0.265625 -0.21875 0.625 -0.3125q0.359375 -0.109375 0.8125 -0.109375q0.34375 0 0.65625 0.03125q0.3125 0.03125 0.65625 0.109375l0.171875 -1.171875q-0.1875 -0.078125 -0.546875 -0.125q-0.359375 -0.046875 -0.6875 -0.046875zm15.277618 7.171871l0 -9.468746l-0.09375 0l-3.578125 1.375l0 1.09375l2.46875 -0.9375l0 7.937496l1.203125 0z" fill-rule="nonzero"/><path fill="#ffffff" d="m459.5328 128.55028l41.7323 0l0 44.314957l-41.7323 0z" fill-rule="evenodd"/><path stroke="#595959" stroke-width="1.0" stroke-linejoin="round" stroke-linecap="butt" d="m459.5328 128.55028l41.7323 0l0 44.314957l-41.7323 0z" fill-rule="evenodd"/><path fill="#595959" d="m471.7203 151.91026l2.421875 0q0.828125 -0.015625 1.5625 -0.25q0.75 -0.25 1.3125 -0.71875q0.546875 -0.46875 0.875 -1.140625q0.328125 -0.6875 0.328125 -1.578125q0 -0.890625 -0.328125 -1.5625q-0.328125 -0.6875 -0.875 -1.15625q-0.5625 -0.46875 -1.3125 -0.703125q-0.734375 -0.25 -1.5625 -0.265625l-4.0 0l0 12.3125l1.578125 0l0 -4.9375zm0 -1.296875l0 -4.796875l2.421875 0q0.546875 0 1.0 0.171875q0.46875 0.171875 0.796875 0.484375q0.328125 0.3125 0.515625 0.765625q0.203125 0.453125 0.203125 1.0q0 0.5625 -0.203125 1.0q-0.1875 0.4375 -0.515625 0.734375q-0.34375 0.3125 -0.796875 0.484375q-0.453125 0.15625 -1.0 0.15625l-2.421875 0zm10.507965 -0.671875l0 1.265625l1.125 0q0.578125 0 1.0625 0.140625q0.484375 0.125 0.84375 0.40625q0.328125 0.28125 0.515625 0.703125q0.203125 0.40625 0.203125 0.984375q0 0.59375 -0.171875 1.015625q-0.171875 0.421875 -0.46875 0.71875q-0.3125 0.28125 -0.75 0.421875q-0.421875 0.140625 -0.953125 0.140625q-0.53125 0 -0.96875 -0.140625q-0.4375 -0.15625 -0.734375 -0.4375q-0.3125 -0.28125 -0.484375 -0.671875q-0.15625 -0.40625 -0.15625 -0.890625l-1.5625 0q0 0.8125 0.296875 1.453125q0.3125 0.625 0.84375 1.0625q0.53125 0.453125 1.234375 0.6875q0.71875 0.21875 1.53125 0.21875q0.828125 0 1.546875 -0.234375q0.71875 -0.25 1.234375 -0.71875q0.53125 -0.453125 0.828125 -1.125q0.296875 -0.671875 0.296875 -1.53125q0 -0.421875 -0.109375 -0.84375q-0.09375 -0.4375 -0.328125 -0.828125q-0.25 -0.390625 -0.65625 -0.703125q-0.390625 -0.3125 -1.0 -0.515625q0.5 -0.203125 0.859375 -0.515625q0.359375 -0.328125 0.59375 -0.6875q0.234375 -0.359375 0.34375 -0.734375q0.109375 -0.375 0.109375 -0.734375q0 -0.859375 -0.28125 -1.5q-0.265625 -0.65625 -0.75 -1.09375q-0.5 -0.453125 -1.1875 -0.671875q-0.671875 -0.21875 -1.5 -0.21875q-0.859375 0 -1.5625 0.265625q-0.703125 0.265625 -1.1875 0.71875q-0.5 0.46875 -0.78125 1.09375q-0.28125 0.609375 -0.28125 1.3125l1.578125 0q0 -0.46875 0.15625 -0.859375q0.171875 -0.390625 0.46875 -0.671875q0.28125 -0.28125 0.6875 -0.421875q0.421875 -0.15625 0.921875 -0.15625q0.515625 0 0.90625 0.140625q0.40625 0.125 0.671875 0.390625q0.28125 0.265625 0.421875 0.671875q0.15625 0.40625 0.15625 0.96875q0 0.453125 -0.171875 0.84375q-0.15625 0.390625 -0.453125 0.671875q-0.3125 0.28125 -0.765625 0.453125q-0.453125 0.15625 -1.046875 0.15625l-1.125 0z" fill-rule="nonzero"/><path fill="#eeeeee" d="m434.56693 205.14043l90.86612 0l0 134.99211l-90.86612 0z" fill-rule="evenodd"/><path stroke="#595959" stroke-width="1.0" stroke-linejoin="round" stroke-linecap="butt" d="m434.56693 205.14043l90.86612 0l0 134.99211l-90.86612 0z" fill-rule="evenodd"/><path fill="#ffffff" d="m458.7349 230.15308l41.7323 0l0 44.31494l-41.7323 0z" fill-rule="evenodd"/><path stroke="#595959" stroke-width="1.0" stroke-linejoin="round" stroke-linecap="butt" d="m458.7349 230.15308l41.7323 0l0 44.31494l-41.7323 0z" fill-rule="evenodd"/><path fill="#595959" d="m470.9224 253.51305l2.421875 0q0.828125 -0.015625 1.5625 -0.25q0.75 -0.25 1.3125 -0.71875q0.546875 -0.46875 0.875 -1.140625q0.328125 -0.6875 0.328125 -1.578125q0 -0.890625 -0.328125 -1.5625q-0.328125 -0.6875 -0.875 -1.15625q-0.5625 -0.46875 -1.3125 -0.703125q-0.734375 -0.25 -1.5625 -0.265625l-4.0 0l0 12.312515l1.578125 0l0 -4.9375153zm0 -1.296875l0 -4.796875l2.421875 0q0.546875 0 1.0 0.171875q0.46875 0.171875 0.796875 0.484375q0.328125 0.3125 0.515625 0.765625q0.203125 0.453125 0.203125 1.0q0 0.5625 -0.203125 1.0q-0.1875 0.4375 -0.515625 0.734375q-0.34375 0.3125 -0.796875 0.484375q-0.453125 0.15625 -1.0 0.15625l-2.421875 0zm13.757965 6.2343903l0 -12.312515l-0.125 0l-4.65625 1.78125l0 1.4375l3.21875 -1.234375l0 10.32814l1.5625 0z" fill-rule="nonzero"/><path fill="#000000" fill-opacity="0.0" d="m434.56693 199.86745l90.86612 0l0 35.559067l-90.86612 0z" fill-rule="evenodd"/><path fill="#000000" d="m444.69193 221.66745l3.03125 0q0.59375 0 1.15625 -0.1875q0.578125 -0.1875 1.015625 -0.53125q0.4375 -0.328125 0.6875 -0.828125q0.265625 -0.515625 0.265625 -1.1875q0 -0.421875 -0.125 -0.78125q-0.125 -0.375 -0.359375 -0.65625q-0.203125 -0.265625 -0.546875 -0.484375q-0.328125 -0.234375 -0.6875 -0.3125l0 -0.015625q0.34375 -0.15625 0.578125 -0.328125q0.25 -0.171875 0.453125 -0.421875q0.203125 -0.234375 0.3125 -0.53125q0.109375 -0.3125 0.125 -0.6875q0 -0.65625 -0.265625 -1.125q-0.25 -0.484375 -0.6875 -0.796875q-0.4375 -0.296875 -1.0 -0.4375q-0.5625 -0.15625 -1.140625 -0.15625l-2.8125 0l0 9.46875zm1.203125 -4.4375l1.921875 0q0.390625 0.015625 0.71875 0.140625q0.328125 0.109375 0.578125 0.328125q0.25 0.21875 0.390625 0.53125q0.140625 0.3125 0.125 0.71875q0 0.390625 -0.15625 0.703125q-0.140625 0.3125 -0.40625 0.53125q-0.265625 0.21875 -0.609375 0.34375q-0.328125 0.109375 -0.703125 0.125l-1.859375 0l0 -3.421875zm0 -1.0l0 -3.015625l1.640625 0q0.359375 0.015625 0.6875 0.109375q0.34375 0.078125 0.609375 0.25q0.25 0.1875 0.390625 0.46875q0.15625 0.265625 0.15625 0.671875q0 0.359375 -0.15625 0.640625q-0.15625 0.28125 -0.40625 0.46875q-0.25 0.203125 -0.578125 0.3125q-0.328125 0.09375 -0.65625 0.09375l-1.6875 0zm11.420074 -1.734375q-0.765625 0 -1.375 0.34375q-0.59375 0.328125 -1.03125 0.90625l0 -0.171875l-0.0625 -0.953125l-1.140625 0l0 7.046875l1.203125 0l0 -4.515625q0.125 -0.328125 0.296875 -0.59375q0.1875 -0.265625 0.421875 -0.4375q0.265625 -0.21875 0.625 -0.3125q0.359375 -0.109375 0.8125 -0.109375q0.34375 0 0.65625 0.03125q0.3125 0.03125 0.65625 0.109375l0.171875 -1.171875q-0.1875 -0.078125 -0.546875 -0.125q-0.359375 -0.046875 -0.6875 -0.046875zm3.045044 3.59375l0 0.140625q0 0.75 0.21875 1.40625q0.21875 0.65625 0.640625 1.140625q0.40625 0.46875 1.0 0.75q0.59375 0.265625 1.34375 0.265625q0.75 0 1.328125 -0.265625q0.59375 -0.28125 1.015625 -0.75q0.40625 -0.484375 0.625 -1.140625q0.234375 -0.65625 0.234375 -1.40625l0 -0.140625q0 -0.765625 -0.234375 -1.421875q-0.21875 -0.65625 -0.625 -1.140625q-0.421875 -0.484375 -1.015625 -0.75q-0.59375 -0.28125 -1.34375 -0.28125q-0.734375 0 -1.328125 0.28125q-0.59375 0.265625 -1.0 0.75q-0.421875 0.484375 -0.640625 1.140625q-0.21875 0.65625 -0.21875 1.421875zm1.203125 0.140625l0 -0.140625q0 -0.515625 0.125 -0.984375q0.125 -0.484375 0.375 -0.84375q0.25 -0.359375 0.609375 -0.5625q0.375 -0.21875 0.875 -0.21875q0.5 0 0.875 0.21875q0.375 0.203125 0.640625 0.5625q0.234375 0.359375 0.359375 0.84375q0.140625 0.46875 0.140625 0.984375l0 0.140625q0 0.515625 -0.125 0.984375q-0.125 0.46875 -0.375 0.828125q-0.25 0.359375 -0.625 0.578125q-0.375 0.203125 -0.875 0.203125q-0.5 0 -0.875 -0.203125q-0.375 -0.21875 -0.625 -0.578125q-0.25 -0.359375 -0.375 -0.828125q-0.125 -0.46875 -0.125 -0.984375zm9.232574 0.15625l2.59375 3.28125l1.53125 0l-3.296875 -4.109375l2.859375 -2.9375l-1.46875 0l-2.3125 2.328125l-0.78125 0.84375l0 -6.125l-1.21875 0l0 10.0l1.21875 0l0 -2.4375l0.875 -0.84375zm9.013794 3.40625q1.015625 0 1.71875 -0.40625q0.703125 -0.421875 1.046875 -0.953125l-0.734375 -0.5625q-0.328125 0.421875 -0.828125 0.6875q-0.5 0.25 -1.140625 0.25q-0.5 0 -0.90625 -0.171875q-0.390625 -0.1875 -0.671875 -0.5q-0.28125 -0.296875 -0.453125 -0.6875q-0.15625 -0.390625 -0.203125 -0.90625l0 -0.046875l5.03125 0l0 -0.546875q0 -0.734375 -0.1875 -1.359375q-0.1875 -0.640625 -0.5625 -1.109375q-0.375 -0.453125 -0.953125 -0.71875q-0.5625 -0.265625 -1.3125 -0.265625q-0.609375 0 -1.1875 0.25q-0.578125 0.25 -1.03125 0.703125q-0.453125 0.46875 -0.734375 1.140625q-0.265625 0.671875 -0.265625 1.53125l0 0.265625q0 0.75 0.25 1.375q0.25 0.625 0.6875 1.078125q0.453125 0.453125 1.0625 0.703125q0.625 0.25 1.375 0.25zm-0.15625 -6.3125q0.453125 0 0.78125 0.171875q0.34375 0.171875 0.5625 0.4375q0.21875 0.28125 0.34375 0.65625q0.125 0.375 0.125 0.703125l0 0.046875l-3.78125 0q0.0625 -0.484375 0.234375 -0.859375q0.1875 -0.375 0.453125 -0.625q0.265625 -0.265625 0.578125 -0.390625q0.328125 -0.140625 0.703125 -0.140625zm9.654449 -0.984375q-0.765625 0 -1.375 0.34375q-0.59375 0.328125 -1.03125 0.90625l0 -0.171875l-0.0625 -0.953125l-1.140625 0l0 7.046875l1.203125 0l0 -4.515625q0.125 -0.328125 0.296875 -0.59375q0.1875 -0.265625 0.421875 -0.4375q0.265625 -0.21875 0.625 -0.3125q0.359375 -0.109375 0.8125 -0.109375q0.34375 0 0.65625 0.03125q0.3125 0.03125 0.65625 0.109375l0.171875 -1.171875q-0.1875 -0.078125 -0.546875 -0.125q-0.359375 -0.046875 -0.6875 -0.046875zm17.183868 7.171875l0 -0.984375l-4.75 0l2.546875 -2.75q0.359375 -0.390625 0.671875 -0.78125q0.328125 -0.40625 0.578125 -0.8125q0.234375 -0.40625 0.375 -0.8125q0.15625 -0.40625 0.15625 -0.828125q0 -0.578125 -0.203125 -1.046875q-0.203125 -0.484375 -0.578125 -0.84375q-0.359375 -0.34375 -0.90625 -0.546875q-0.53125 -0.203125 -1.203125 -0.203125q-0.734375 0 -1.3125 0.234375q-0.5625 0.234375 -0.953125 0.640625q-0.390625 0.390625 -0.609375 0.921875q-0.203125 0.53125 -0.203125 1.125l1.21875 0q0 -0.4375 0.109375 -0.796875q0.109375 -0.359375 0.34375 -0.609375q0.234375 -0.25 0.578125 -0.375q0.359375 -0.140625 0.828125 -0.140625q0.390625 0 0.703125 0.140625q0.3125 0.125 0.53125 0.34375q0.203125 0.234375 0.3125 0.546875q0.125 0.296875 0.125 0.65625q0 0.28125 -0.078125 0.5625q-0.0625 0.265625 -0.234375 0.5625q-0.171875 0.296875 -0.453125 0.65625q-0.28125 0.359375 -0.6875 0.828125l-3.109375 3.453125l0 0.859375l6.203125 0z" fill-rule="nonzero"/><path fill="#ffffff" d="m459.13385 285.17627l41.7323 0l0 44.31494l-41.7323 0z" fill-rule="evenodd"/><path stroke="#595959" stroke-width="1.0" stroke-linejoin="round" stroke-linecap="butt" d="m459.13385 285.17627l41.7323 0l0 44.31494l-41.7323 0z" fill-rule="evenodd"/><path fill="#595959" d="m471.32135 308.53625l2.421875 0q0.828125 -0.015625 1.5625 -0.25q0.75 -0.25 1.3125 -0.71875q0.546875 -0.46875 0.875 -1.140625q0.328125 -0.6875 0.328125 -1.578125q0 -0.890625 -0.328125 -1.5625q-0.328125 -0.6875 -0.875 -1.15625q-0.5625 -0.46875 -1.3125 -0.703125q-0.734375 -0.25 -1.5625 -0.265625l-4.0 0l0 12.3125l1.578125 0l0 -4.9375zm0 -1.296875l0 -4.796875l2.421875 0q0.546875 0 1.0 0.171875q0.46875 0.171875 0.796875 0.484375q0.328125 0.3125 0.515625 0.765625q0.203125 0.453125 0.203125 1.0q0 0.5625 -0.203125 1.0q-0.1875 0.4375 -0.515625 0.734375q-0.34375 0.3125 -0.796875 0.484375q-0.453125 0.15625 -1.0 0.15625l-2.421875 0zm15.02359 2.09375l0 -8.171875l-1.65625 0l-5.515625 8.53125l0 0.921875l5.609375 0l0 2.859375l1.5625 0l0 -2.859375l1.71875 0l0 -1.28125l-1.71875 0zm-5.4375 0l3.625 -5.625l0.25 -0.46875l0 6.09375l-3.875 0z" fill-rule="nonzero"/><path fill="#eeeeee" d="m434.56693 361.76904l90.86612 0l0 134.99213l-90.86612 0z" fill-rule="evenodd"/><path stroke="#595959" stroke-width="1.0" stroke-linejoin="round" stroke-linecap="butt" d="m434.56693 361.76904l90.86612 0l0 134.99213l-90.86612 0z" fill-rule="evenodd"/><path fill="#ffffff" d="m458.7349 386.78168l41.7323 0l0 44.314972l-41.7323 0z" fill-rule="evenodd"/><path stroke="#595959" stroke-width="1.0" stroke-linejoin="round" stroke-linecap="butt" d="m458.7349 386.78168l41.7323 0l0 44.314972l-41.7323 0z" fill-rule="evenodd"/><path fill="#595959" d="m470.9224 410.14166l2.421875 0q0.828125 -0.015625 1.5625 -0.25q0.75 -0.25 1.3125 -0.71875q0.546875 -0.46875 0.875 -1.140625q0.328125 -0.6875 0.328125 -1.578125q0 -0.890625 -0.328125 -1.5625q-0.328125 -0.6875 -0.875 -1.15625q-0.5625 -0.46875 -1.3125 -0.703125q-0.734375 -0.25 -1.5625 -0.265625l-4.0 0l0 12.3125l1.578125 0l0 -4.9375zm0 -1.296875l0 -4.796875l2.421875 0q0.546875 0 1.0 0.171875q0.46875 0.171875 0.796875 0.484375q0.328125 0.3125 0.515625 0.765625q0.203125 0.453125 0.203125 1.0q0 0.5625 -0.203125 1.0q-0.1875 0.4375 -0.515625 0.734375q-0.34375 0.3125 -0.796875 0.484375q-0.453125 0.15625 -1.0 0.15625l-2.421875 0zm16.24234 6.234375l0 -1.28125l-6.1875 0l3.3125 -3.578125q0.453125 -0.515625 0.875 -1.015625q0.421875 -0.515625 0.75 -1.046875q0.3125 -0.53125 0.5 -1.0625q0.1875 -0.53125 0.1875 -1.078125q0 -0.75 -0.265625 -1.375q-0.265625 -0.625 -0.734375 -1.078125q-0.484375 -0.453125 -1.1875 -0.703125q-0.703125 -0.265625 -1.5625 -0.265625q-0.953125 0 -1.703125 0.3125q-0.734375 0.296875 -1.234375 0.8125q-0.515625 0.515625 -0.796875 1.203125q-0.265625 0.6875 -0.265625 1.46875l1.578125 0q0 -0.578125 0.140625 -1.046875q0.15625 -0.46875 0.453125 -0.796875q0.296875 -0.3125 0.75 -0.484375q0.453125 -0.1875 1.078125 -0.1875q0.5 0 0.90625 0.171875q0.40625 0.171875 0.6875 0.46875q0.28125 0.296875 0.421875 0.703125q0.15625 0.40625 0.15625 0.859375q0 0.375 -0.09375 0.734375q-0.09375 0.34375 -0.3125 0.734375q-0.21875 0.390625 -0.59375 0.859375q-0.359375 0.46875 -0.90625 1.0625l-4.03125 4.484375l0 1.125l8.078125 0z" fill-rule="nonzero"/><path fill="#000000" fill-opacity="0.0" d="m434.56693 356.49606l90.86612 0l0 35.55905l-90.86612 0z" fill-rule="evenodd"/><path fill="#000000" d="m444.69193 378.29605l3.03125 0q0.59375 0 1.15625 -0.1875q0.578125 -0.1875 1.015625 -0.53125q0.4375 -0.328125 0.6875 -0.828125q0.265625 -0.515625 0.265625 -1.1875q0 -0.421875 -0.125 -0.78125q-0.125 -0.375 -0.359375 -0.65625q-0.203125 -0.265625 -0.546875 -0.484375q-0.328125 -0.234375 -0.6875 -0.3125l0 -0.015625q0.34375 -0.15625 0.578125 -0.328125q0.25 -0.171875 0.453125 -0.421875q0.203125 -0.234375 0.3125 -0.53125q0.109375 -0.3125 0.125 -0.6875q0 -0.65625 -0.265625 -1.125q-0.25 -0.484375 -0.6875 -0.796875q-0.4375 -0.296875 -1.0 -0.4375q-0.5625 -0.15625 -1.140625 -0.15625l-2.8125 0l0 9.46875zm1.203125 -4.4375l1.921875 0q0.390625 0.015625 0.71875 0.140625q0.328125 0.109375 0.578125 0.328125q0.25 0.21875 0.390625 0.53125q0.140625 0.3125 0.125 0.71875q0 0.390625 -0.15625 0.703125q-0.140625 0.3125 -0.40625 0.53125q-0.265625 0.21875 -0.609375 0.34375q-0.328125 0.109375 -0.703125 0.125l-1.859375 0l0 -3.421875zm0 -1.0l0 -3.015625l1.640625 0q0.359375 0.015625 0.6875 0.109375q0.34375 0.078125 0.609375 0.25q0.25 0.1875 0.390625 0.46875q0.15625 0.265625 0.15625 0.671875q0 0.359375 -0.15625 0.640625q-0.15625 0.28125 -0.40625 0.46875q-0.25 0.203125 -0.578125 0.3125q-0.328125 0.09375 -0.65625 0.09375l-1.6875 0zm11.420074 -1.734375q-0.765625 0 -1.375 0.34375q-0.59375 0.328125 -1.03125 0.90625l0 -0.171875l-0.0625 -0.953125l-1.140625 0l0 7.046875l1.203125 0l0 -4.515625q0.125 -0.328125 0.296875 -0.59375q0.1875 -0.265625 0.421875 -0.4375q0.265625 -0.21875 0.625 -0.3125q0.359375 -0.109375 0.8125 -0.109375q0.34375 0 0.65625 0.03125q0.3125 0.03125 0.65625 0.109375l0.171875 -1.171875q-0.1875 -0.078125 -0.546875 -0.125q-0.359375 -0.046875 -0.6875 -0.046875zm3.045044 3.59375l0 0.140625q0 0.75 0.21875 1.40625q0.21875 0.65625 0.640625 1.140625q0.40625 0.46875 1.0 0.75q0.59375 0.265625 1.34375 0.265625q0.75 0 1.328125 -0.265625q0.59375 -0.28125 1.015625 -0.75q0.40625 -0.484375 0.625 -1.140625q0.234375 -0.65625 0.234375 -1.40625l0 -0.140625q0 -0.765625 -0.234375 -1.421875q-0.21875 -0.65625 -0.625 -1.140625q-0.421875 -0.484375 -1.015625 -0.75q-0.59375 -0.28125 -1.34375 -0.28125q-0.734375 0 -1.328125 0.28125q-0.59375 0.265625 -1.0 0.75q-0.421875 0.484375 -0.640625 1.140625q-0.21875 0.65625 -0.21875 1.421875zm1.203125 0.140625l0 -0.140625q0 -0.515625 0.125 -0.984375q0.125 -0.484375 0.375 -0.84375q0.25 -0.359375 0.609375 -0.5625q0.375 -0.21875 0.875 -0.21875q0.5 0 0.875 0.21875q0.375 0.203125 0.640625 0.5625q0.234375 0.359375 0.359375 0.84375q0.140625 0.46875 0.140625 0.984375l0 0.140625q0 0.515625 -0.125 0.984375q-0.125 0.46875 -0.375 0.828125q-0.25 0.359375 -0.625 0.578125q-0.375 0.203125 -0.875 0.203125q-0.5 0 -0.875 -0.203125q-0.375 -0.21875 -0.625 -0.578125q-0.25 -0.359375 -0.375 -0.828125q-0.125 -0.46875 -0.125 -0.984375zm9.232574 0.15625l2.59375 3.28125l1.53125 0l-3.296875 -4.109375l2.859375 -2.9375l-1.46875 0l-2.3125 2.328125l-0.78125 0.84375l0 -6.125l-1.21875 0l0 10.0l1.21875 0l0 -2.4375l0.875 -0.84375zm9.013794 3.40625q1.015625 0 1.71875 -0.40625q0.703125 -0.421875 1.046875 -0.953125l-0.734375 -0.5625q-0.328125 0.421875 -0.828125 0.6875q-0.5 0.25 -1.140625 0.25q-0.5 0 -0.90625 -0.171875q-0.390625 -0.1875 -0.671875 -0.5q-0.28125 -0.296875 -0.453125 -0.6875q-0.15625 -0.390625 -0.203125 -0.90625l0 -0.046875l5.03125 0l0 -0.546875q0 -0.734375 -0.1875 -1.359375q-0.1875 -0.640625 -0.5625 -1.109375q-0.375 -0.453125 -0.953125 -0.71875q-0.5625 -0.265625 -1.3125 -0.265625q-0.609375 0 -1.1875 0.25q-0.578125 0.25 -1.03125 0.703125q-0.453125 0.46875 -0.734375 1.140625q-0.265625 0.671875 -0.265625 1.53125l0 0.265625q0 0.75 0.25 1.375q0.25 0.625 0.6875 1.078125q0.453125 0.453125 1.0625 0.703125q0.625 0.25 1.375 0.25zm-0.15625 -6.3125q0.453125 0 0.78125 0.171875q0.34375 0.171875 0.5625 0.4375q0.21875 0.28125 0.34375 0.65625q0.125 0.375 0.125 0.703125l0 0.046875l-3.78125 0q0.0625 -0.484375 0.234375 -0.859375q0.1875 -0.375 0.453125 -0.625q0.265625 -0.265625 0.578125 -0.390625q0.328125 -0.140625 0.703125 -0.140625zm9.654449 -0.984375q-0.765625 0 -1.375 0.34375q-0.59375 0.328125 -1.03125 0.90625l0 -0.171875l-0.0625 -0.953125l-1.140625 0l0 7.046875l1.203125 0l0 -4.515625q0.125 -0.328125 0.296875 -0.59375q0.1875 -0.265625 0.421875 -0.4375q0.265625 -0.21875 0.625 -0.3125q0.359375 -0.109375 0.8125 -0.109375q0.34375 0 0.65625 0.03125q0.3125 0.03125 0.65625 0.109375l0.171875 -1.171875q-0.1875 -0.078125 -0.546875 -0.125q-0.359375 -0.046875 -0.6875 -0.046875zm12.777618 1.859375l0 0.96875l0.859375 0q0.453125 0 0.828125 0.109375q0.375 0.109375 0.640625 0.3125q0.265625 0.21875 0.40625 0.546875q0.15625 0.3125 0.15625 0.765625q0 0.4375 -0.140625 0.765625q-0.125 0.328125 -0.359375 0.5625q-0.234375 0.21875 -0.5625 0.328125q-0.328125 0.09375 -0.734375 0.09375q-0.421875 0 -0.765625 -0.109375q-0.328125 -0.125 -0.5625 -0.328125q-0.234375 -0.21875 -0.359375 -0.515625q-0.125 -0.3125 -0.125 -0.6875l-1.203125 0q0 0.625 0.234375 1.125q0.25 0.484375 0.640625 0.8125q0.40625 0.34375 0.953125 0.515625q0.5625 0.171875 1.1875 0.171875q0.625 0 1.171875 -0.171875q0.5625 -0.1875 0.96875 -0.546875q0.390625 -0.359375 0.625 -0.875q0.234375 -0.515625 0.234375 -1.171875q0 -0.328125 -0.078125 -0.65625q-0.078125 -0.328125 -0.265625 -0.640625q-0.1875 -0.296875 -0.5 -0.53125q-0.296875 -0.25 -0.765625 -0.390625q0.390625 -0.171875 0.65625 -0.40625q0.28125 -0.25 0.453125 -0.53125q0.1875 -0.265625 0.265625 -0.5625q0.078125 -0.296875 0.078125 -0.5625q0 -0.65625 -0.203125 -1.15625q-0.203125 -0.5 -0.578125 -0.84375q-0.390625 -0.34375 -0.921875 -0.515625q-0.515625 -0.171875 -1.15625 -0.171875q-0.65625 0 -1.203125 0.203125q-0.53125 0.203125 -0.90625 0.5625q-0.390625 0.359375 -0.609375 0.84375q-0.203125 0.46875 -0.203125 1.015625l1.21875 0q0 -0.375 0.109375 -0.671875q0.125 -0.296875 0.359375 -0.515625q0.21875 -0.21875 0.53125 -0.328125q0.328125 -0.109375 0.703125 -0.109375q0.40625 0 0.703125 0.09375q0.3125 0.09375 0.515625 0.296875q0.21875 0.21875 0.328125 0.53125q0.109375 0.3125 0.109375 0.734375q0 0.359375 -0.125 0.65625q-0.109375 0.296875 -0.34375 0.515625q-0.25 0.21875 -0.59375 0.34375q-0.34375 0.125 -0.8125 0.125l-0.859375 0z" fill-rule="nonzero"/><path fill="#d3e3fc" d="m773.3858 252.31102l156.09448 0l0 47.464584l-156.09448 0z" fill-rule="evenodd"/><path stroke="#595959" stroke-width="1.0" stroke-linejoin="round" stroke-linecap="butt" d="m773.3858 252.31102l156.09448 0l0 47.464584l-156.09448 0z" fill-rule="evenodd"/><path fill="#595959" d="m826.8588 262.2627l0 -1.234375l-8.4375 0l0 1.234375l3.515625 0l0 10.140625l1.40625 0l0 -10.140625l3.515625 0zm1.5234375 5.828125l0 0.171875q0 0.921875 0.265625 1.703125q0.265625 0.78125 0.765625 1.359375q0.5 0.578125 1.203125 0.90625q0.71875 0.328125 1.625 0.328125q0.890625 0 1.59375 -0.328125q0.71875 -0.328125 1.21875 -0.90625q0.484375 -0.578125 0.75 -1.359375q0.265625 -0.78125 0.265625 -1.703125l0 -0.171875q0 -0.90625 -0.265625 -1.6875q-0.265625 -0.796875 -0.75 -1.375q-0.5 -0.578125 -1.21875 -0.90625q-0.71875 -0.328125 -1.609375 -0.328125q-0.890625 0 -1.609375 0.328125q-0.703125 0.328125 -1.203125 0.90625q-0.5 0.578125 -0.765625 1.375q-0.265625 0.78125 -0.265625 1.6875zm1.453125 0.171875l0 -0.171875q0 -0.609375 0.140625 -1.171875q0.15625 -0.578125 0.453125 -1.0q0.296875 -0.4375 0.734375 -0.6875q0.453125 -0.25 1.0625 -0.25q0.59375 0 1.046875 0.25q0.453125 0.25 0.75 0.6875q0.296875 0.421875 0.453125 1.0q0.15625 0.5625 0.15625 1.171875l0 0.171875q0 0.625 -0.15625 1.203125q-0.140625 0.5625 -0.4375 0.984375q-0.3125 0.4375 -0.765625 0.6875q-0.4375 0.25 -1.03125 0.25q-0.609375 0 -1.0625 -0.25q-0.453125 -0.25 -0.75 -0.6875q-0.296875 -0.421875 -0.453125 -0.984375q-0.140625 -0.578125 -0.140625 -1.203125zm8.5546875 7.390625l1.4375 0l0 -4.0625q0.15625 0.171875 0.328125 0.3125q0.1875 0.140625 0.390625 0.265625q0.34375 0.1875 0.75 0.28125q0.421875 0.109375 0.90625 0.109375q0.796875 0 1.421875 -0.328125q0.625 -0.328125 1.046875 -0.90625q0.421875 -0.578125 0.640625 -1.359375q0.21875 -0.796875 0.21875 -1.703125l0 -0.15625q0 -0.953125 -0.21875 -1.734375q-0.21875 -0.796875 -0.640625 -1.375q-0.421875 -0.5625 -1.046875 -0.875q-0.625 -0.328125 -1.4375 -0.328125q-0.46875 0 -0.875 0.09375q-0.390625 0.09375 -0.71875 0.28125q-0.234375 0.125 -0.4375 0.3125q-0.203125 0.171875 -0.375 0.390625l-0.078125 -0.921875l-1.3125 0l0 11.703125zm5.6875 -7.546875l0 0.15625q0 0.625 -0.140625 1.1875q-0.125 0.5625 -0.40625 0.984375q-0.28125 0.4375 -0.71875 0.6875q-0.4375 0.25 -1.046875 0.25q-0.375 0 -0.6875 -0.09375q-0.296875 -0.09375 -0.546875 -0.25q-0.21875 -0.140625 -0.390625 -0.34375q-0.171875 -0.203125 -0.3125 -0.4375l0 -4.078125q0.15625 -0.265625 0.34375 -0.484375q0.203125 -0.21875 0.453125 -0.359375q0.21875 -0.15625 0.5 -0.234375q0.296875 -0.078125 0.625 -0.078125q0.609375 0 1.046875 0.25q0.4375 0.25 0.734375 0.671875q0.28125 0.4375 0.40625 1.0q0.140625 0.546875 0.140625 1.171875zm4.1484375 -4.15625l0 1.25l2.875 0l0 5.953125l-2.875 0l0 1.25l7.078125 0l0 -1.25l-2.765625 0l0 -7.203125l-4.3125 0zm2.6875 -2.21875q0 0.34375 0.203125 0.578125q0.21875 0.234375 0.65625 0.234375q0.4375 0 0.65625 -0.234375q0.21875 -0.234375 0.21875 -0.578125q0 -0.203125 -0.0625 -0.359375q-0.0625 -0.171875 -0.1875 -0.28125q-0.109375 -0.09375 -0.265625 -0.15625q-0.15625 -0.0625 -0.359375 -0.0625q-0.203125 0 -0.359375 0.0625q-0.15625 0.0625 -0.265625 0.15625q-0.125 0.125 -0.1875 0.296875q-0.046875 0.15625 -0.046875 0.34375zm10.2890625 9.65625q-0.6875 0 -1.140625 -0.265625q-0.453125 -0.28125 -0.734375 -0.71875q-0.28125 -0.421875 -0.40625 -0.96875q-0.109375 -0.546875 -0.109375 -1.09375l0 -0.328125q0 -0.546875 0.109375 -1.078125q0.125 -0.546875 0.40625 -0.984375q0.28125 -0.4375 0.734375 -0.703125q0.46875 -0.265625 1.140625 -0.265625q0.4375 0 0.8125 0.15625q0.375 0.140625 0.65625 0.390625q0.265625 0.265625 0.421875 0.609375q0.171875 0.328125 0.171875 0.71875l1.375 0q0 -0.640625 -0.265625 -1.203125q-0.25 -0.5625 -0.703125 -0.984375q-0.46875 -0.40625 -1.09375 -0.640625q-0.625 -0.234375 -1.375 -0.234375q-0.96875 0 -1.6875 0.34375q-0.71875 0.34375 -1.1875 0.921875q-0.484375 0.578125 -0.734375 1.34375q-0.234375 0.765625 -0.234375 1.609375l0 0.328125q0 0.84375 0.234375 1.609375q0.25 0.75 0.734375 1.328125q0.46875 0.59375 1.1875 0.9375q0.71875 0.34375 1.6875 0.34375q0.671875 0 1.28125 -0.234375q0.625 -0.234375 1.09375 -0.625q0.484375 -0.375 0.765625 -0.890625q0.28125 -0.515625 0.296875 -1.078125l-1.375 0q0 0.359375 -0.1875 0.65625q-0.171875 0.296875 -0.453125 0.515625q-0.296875 0.234375 -0.671875 0.359375q-0.359375 0.125 -0.75 0.125zm20.28125 1.015625l0 -11.375l-0.109375 0l-4.3125 1.65625l0 1.3125l2.984375 -1.125l0 9.53125l1.4375 0z" fill-rule="nonzero"/><path fill="#595959" d="m812.1596 287.98145l-1.453125 0q-0.0625 0.515625 -0.234375 0.953125q-0.171875 0.4375 -0.46875 0.765625q-0.28125 0.328125 -0.703125 0.515625q-0.421875 0.171875 -0.984375 0.171875q-0.53125 0 -0.921875 -0.171875q-0.390625 -0.171875 -0.671875 -0.46875q-0.296875 -0.28125 -0.484375 -0.65625q-0.1875 -0.390625 -0.296875 -0.828125q-0.125 -0.4375 -0.171875 -0.875q-0.046875 -0.453125 -0.046875 -0.875l0 -1.609375q0 -0.421875 0.046875 -0.859375q0.046875 -0.453125 0.171875 -0.890625q0.109375 -0.421875 0.296875 -0.796875q0.203125 -0.390625 0.484375 -0.6875q0.28125 -0.28125 0.671875 -0.453125q0.40625 -0.171875 0.921875 -0.171875q0.5625 0 0.984375 0.203125q0.421875 0.1875 0.703125 0.515625q0.296875 0.34375 0.46875 0.796875q0.171875 0.4375 0.234375 0.953125l1.453125 0q-0.09375 -0.8125 -0.390625 -1.484375q-0.296875 -0.671875 -0.78125 -1.15625q-0.484375 -0.484375 -1.15625 -0.734375q-0.671875 -0.265625 -1.515625 -0.265625q-0.71875 0 -1.296875 0.203125q-0.5625 0.1875 -1.0 0.546875q-0.453125 0.34375 -0.78125 0.828125q-0.328125 0.484375 -0.53125 1.046875q-0.21875 0.5625 -0.328125 1.1875q-0.109375 0.609375 -0.109375 1.234375l0 1.59375q0 0.625 0.109375 1.25q0.109375 0.609375 0.328125 1.171875q0.203125 0.5625 0.53125 1.046875q0.328125 0.46875 0.78125 0.828125q0.4375 0.34375 1.015625 0.546875q0.578125 0.203125 1.28125 0.203125q0.8125 0 1.484375 -0.265625q0.671875 -0.265625 1.15625 -0.734375q0.484375 -0.46875 0.78125 -1.125q0.3125 -0.671875 0.421875 -1.453125zm1.8203125 -0.890625l0 0.171875q0 0.921875 0.265625 1.703125q0.265625 0.78125 0.765625 1.359375q0.5 0.578125 1.203125 0.90625q0.71875 0.328125 1.625 0.328125q0.890625 0 1.59375 -0.328125q0.71875 -0.328125 1.21875 -0.90625q0.484375 -0.578125 0.75 -1.359375q0.265625 -0.78125 0.265625 -1.703125l0 -0.171875q0 -0.90625 -0.265625 -1.6875q-0.265625 -0.796875 -0.75 -1.375q-0.5 -0.578125 -1.21875 -0.90625q-0.71875 -0.328125 -1.609375 -0.328125q-0.890625 0 -1.609375 0.328125q-0.703125 0.328125 -1.203125 0.90625q-0.5 0.578125 -0.765625 1.375q-0.265625 0.78125 -0.265625 1.6875zm1.453125 0.171875l0 -0.171875q0 -0.609375 0.140625 -1.171875q0.15625 -0.578125 0.453125 -1.0q0.296875 -0.4375 0.734375 -0.6875q0.453125 -0.25 1.0625 -0.25q0.59375 0 1.046875 0.25q0.453125 0.25 0.75 0.6875q0.296875 0.421875 0.453125 1.0q0.15625 0.5625 0.15625 1.171875l0 0.171875q0 0.625 -0.15625 1.203125q-0.140625 0.5625 -0.4375 0.984375q-0.3125 0.4375 -0.765625 0.6875q-0.4375 0.25 -1.03125 0.25q-0.609375 0 -1.0625 -0.25q-0.453125 -0.25 -0.75 -0.6875q-0.296875 -0.421875 -0.453125 -0.984375q-0.140625 -0.578125 -0.140625 -1.203125zm8.5546875 4.140625l1.453125 0l0 -6.0625q0.140625 -0.28125 0.34375 -0.5q0.203125 -0.234375 0.4375 -0.40625q0.28125 -0.1875 0.625 -0.296875q0.34375 -0.125 0.75 -0.125q0.453125 0 0.8125 0.109375q0.359375 0.109375 0.609375 0.359375q0.234375 0.234375 0.359375 0.625q0.125 0.390625 0.125 0.953125l0 5.34375l1.453125 0l0 -5.375q0 -0.84375 -0.21875 -1.453125q-0.203125 -0.609375 -0.578125 -1.015625q-0.390625 -0.390625 -0.9375 -0.578125q-0.53125 -0.1875 -1.203125 -0.1875q-0.484375 0 -0.9375 0.140625q-0.4375 0.140625 -0.8125 0.390625q-0.25 0.15625 -0.46875 0.390625q-0.21875 0.21875 -0.40625 0.484375l-0.109375 -1.25l-1.296875 0l0 8.453125zm15.2265625 -2.25q0 0.203125 -0.078125 0.390625q-0.078125 0.171875 -0.234375 0.328125q-0.234375 0.234375 -0.671875 0.375q-0.421875 0.140625 -1.0 0.140625q-0.375 0 -0.75 -0.078125q-0.375 -0.078125 -0.671875 -0.265625q-0.3125 -0.1875 -0.53125 -0.484375q-0.203125 -0.3125 -0.234375 -0.765625l-1.4375 0q0 0.546875 0.234375 1.046875q0.25 0.5 0.71875 0.875q0.46875 0.375 1.140625 0.609375q0.671875 0.234375 1.53125 0.234375q0.75 0 1.375 -0.171875q0.640625 -0.1875 1.09375 -0.515625q0.453125 -0.328125 0.703125 -0.78125q0.25 -0.46875 0.25 -1.03125q0 -0.53125 -0.21875 -0.921875q-0.21875 -0.40625 -0.640625 -0.703125q-0.421875 -0.296875 -1.046875 -0.515625q-0.609375 -0.21875 -1.390625 -0.375q-0.59375 -0.125 -0.984375 -0.25q-0.390625 -0.125 -0.609375 -0.28125q-0.234375 -0.15625 -0.328125 -0.34375q-0.09375 -0.203125 -0.09375 -0.453125q0 -0.234375 0.109375 -0.453125q0.125 -0.234375 0.359375 -0.40625q0.21875 -0.171875 0.5625 -0.265625q0.359375 -0.109375 0.8125 -0.109375q0.453125 0 0.796875 0.125q0.359375 0.125 0.609375 0.328125q0.25 0.203125 0.390625 0.46875q0.140625 0.25 0.140625 0.53125l1.453125 0q0 -0.5625 -0.25 -1.03125q-0.234375 -0.484375 -0.671875 -0.84375q-0.4375 -0.359375 -1.0625 -0.5625q-0.625 -0.203125 -1.40625 -0.203125q-0.71875 0 -1.328125 0.203125q-0.609375 0.1875 -1.046875 0.515625q-0.4375 0.34375 -0.6875 0.796875q-0.234375 0.4375 -0.234375 0.953125q0 0.53125 0.234375 0.921875q0.234375 0.390625 0.671875 0.6875q0.421875 0.296875 1.015625 0.515625q0.59375 0.203125 1.328125 0.34375q0.59375 0.125 0.984375 0.265625q0.40625 0.140625 0.640625 0.3125q0.25 0.171875 0.34375 0.390625q0.109375 0.203125 0.109375 0.453125zm9.5546875 2.25l1.3125 0l0 -8.453125l-1.453125 0l0 6.0625q-0.125 0.265625 -0.296875 0.5q-0.171875 0.234375 -0.40625 0.390625q-0.28125 0.203125 -0.671875 0.328125q-0.375 0.109375 -0.859375 0.109375q-0.421875 0 -0.734375 -0.109375q-0.3125 -0.109375 -0.53125 -0.390625q-0.21875 -0.265625 -0.328125 -0.71875q-0.109375 -0.453125 -0.109375 -1.140625l0 -5.03125l-1.453125 0l0 5.015625q0 0.953125 0.203125 1.625q0.21875 0.671875 0.59375 1.109375q0.390625 0.4375 0.921875 0.65625q0.546875 0.203125 1.203125 0.203125q0.828125 0 1.453125 -0.34375q0.640625 -0.359375 1.0625 -0.984375l0.09375 1.171875zm4.6953125 -8.453125l-1.296875 0l0 8.453125l1.375 0l0 -6.734375q0.046875 -0.125 0.109375 -0.234375q0.078125 -0.109375 0.1875 -0.1875q0.125 -0.109375 0.3125 -0.171875q0.203125 -0.0625 0.453125 -0.0625q0.234375 0 0.40625 0.0625q0.1875 0.0625 0.296875 0.1875q0.125 0.125 0.1875 0.328125q0.0625 0.203125 0.0625 0.46875l0 6.34375l1.375 0l0 -6.328125q0 -0.046875 0 -0.078125q0 -0.046875 0 -0.078125q0.015625 -0.203125 0.078125 -0.359375q0.078125 -0.15625 0.203125 -0.28125q0.125 -0.125 0.3125 -0.1875q0.1875 -0.078125 0.453125 -0.078125q0.234375 0 0.421875 0.0625q0.1875 0.0625 0.3125 0.1875q0.109375 0.140625 0.171875 0.34375q0.0625 0.203125 0.0625 0.46875l0 6.328125l1.375 0l0 -6.3125q0 -0.609375 -0.140625 -1.0625q-0.140625 -0.453125 -0.40625 -0.734375q-0.234375 -0.25 -0.59375 -0.375q-0.34375 -0.125 -0.78125 -0.125q-0.328125 0 -0.59375 0.078125q-0.265625 0.078125 -0.484375 0.21875q-0.171875 0.109375 -0.328125 0.265625q-0.140625 0.15625 -0.25 0.34375q-0.09375 -0.203125 -0.21875 -0.359375q-0.109375 -0.15625 -0.265625 -0.265625q-0.203125 -0.140625 -0.46875 -0.203125q-0.265625 -0.078125 -0.609375 -0.078125q-0.59375 0 -1.015625 0.25q-0.40625 0.25 -0.671875 0.703125l-0.03125 -0.796875zm12.6640625 8.609375q1.234375 0 2.078125 -0.5q0.84375 -0.5 1.265625 -1.140625l-0.890625 -0.6875q-0.390625 0.515625 -1.0 0.828125q-0.59375 0.3125 -1.375 0.3125q-0.578125 0 -1.0625 -0.21875q-0.484375 -0.21875 -0.828125 -0.59375q-0.34375 -0.359375 -0.53125 -0.828125q-0.1875 -0.46875 -0.25 -1.09375l0 -0.046875l6.046875 0l0 -0.65625q0 -0.875 -0.234375 -1.625q-0.21875 -0.765625 -0.671875 -1.328125q-0.453125 -0.5625 -1.140625 -0.875q-0.671875 -0.3125 -1.59375 -0.3125q-0.71875 0 -1.421875 0.296875q-0.6875 0.296875 -1.21875 0.84375q-0.546875 0.5625 -0.875 1.375q-0.328125 0.8125 -0.328125 1.828125l0 0.328125q0 0.890625 0.296875 1.640625q0.296875 0.75 0.828125 1.296875q0.53125 0.546875 1.265625 0.859375q0.75 0.296875 1.640625 0.296875zm-0.1875 -7.578125q0.5625 0 0.953125 0.203125q0.40625 0.203125 0.671875 0.53125q0.265625 0.328125 0.40625 0.78125q0.15625 0.4375 0.15625 0.828125l0 0.078125l-4.546875 0q0.09375 -0.59375 0.296875 -1.03125q0.21875 -0.453125 0.53125 -0.765625q0.3125 -0.3125 0.703125 -0.46875q0.390625 -0.15625 0.828125 -0.15625zm11.6015625 -1.1875q-0.921875 0 -1.65625 0.40625q-0.71875 0.390625 -1.234375 1.09375l0 -0.21875l-0.0625 -1.125l-1.375 0l0 8.453125l1.453125 0l0 -5.421875q0.140625 -0.390625 0.34375 -0.703125q0.21875 -0.328125 0.515625 -0.546875q0.3125 -0.25 0.734375 -0.375q0.4375 -0.125 0.96875 -0.125q0.421875 0 0.796875 0.046875q0.375 0.03125 0.796875 0.125l0.203125 -1.40625q-0.21875 -0.09375 -0.65625 -0.140625q-0.4375 -0.0625 -0.828125 -0.0625zm20.640625 8.609375l0 -1.1875l-5.71875 0l3.0625 -3.3125q0.421875 -0.46875 0.8125 -0.9375q0.390625 -0.46875 0.6875 -0.953125q0.28125 -0.484375 0.453125 -0.984375q0.171875 -0.5 0.171875 -1.0q0 -0.6875 -0.234375 -1.265625q-0.234375 -0.578125 -0.6875 -1.0q-0.4375 -0.421875 -1.09375 -0.65625q-0.640625 -0.234375 -1.4375 -0.234375q-0.875 0 -1.5625 0.28125q-0.6875 0.28125 -1.15625 0.75q-0.46875 0.484375 -0.71875 1.125q-0.25 0.625 -0.25 1.34375l1.453125 0q0 -0.53125 0.125 -0.953125q0.140625 -0.4375 0.421875 -0.734375q0.28125 -0.296875 0.6875 -0.453125q0.421875 -0.171875 1.0 -0.171875q0.46875 0 0.828125 0.15625q0.375 0.15625 0.640625 0.4375q0.265625 0.265625 0.390625 0.640625q0.140625 0.375 0.140625 0.796875q0 0.34375 -0.09375 0.671875q-0.078125 0.3125 -0.28125 0.671875q-0.203125 0.375 -0.546875 0.8125q-0.328125 0.421875 -0.828125 0.96875l-3.71875 4.140625l0 1.046875l7.453125 0z" fill-rule="nonzero"/><path fill="#d3e3fc" d="m722.11285 252.31317l41.7323 0l0 44.314972l-41.7323 0z" fill-rule="evenodd"/><path stroke="#595959" stroke-width="1.0" stroke-linejoin="round" stroke-linecap="butt" d="m722.11285 252.31317l41.7323 0l0 44.314972l-41.7323 0z" fill-rule="evenodd"/><path fill="#595959" d="m734.30035 275.67316l2.421875 0q0.828125 -0.015625 1.5625 -0.25q0.75 -0.25 1.3125 -0.71875q0.546875 -0.46875 0.875 -1.140625q0.328125 -0.6875 0.328125 -1.578125q0 -0.890625 -0.328125 -1.5625q-0.328125 -0.6875 -0.875 -1.15625q-0.5625 -0.46875 -1.3125 -0.703125q-0.734375 -0.25 -1.5625 -0.265625l-4.0 0l0 12.3125l1.578125 0l0 -4.9375zm0 -1.296875l0 -4.796875l2.421875 0q0.546875 0 1.0 0.171875q0.46875 0.171875 0.796875 0.484375q0.328125 0.3125 0.515625 0.765625q0.203125 0.453125 0.203125 1.0q0 0.5625 -0.203125 1.0q-0.1875 0.4375 -0.515625 0.734375q-0.34375 0.3125 -0.796875 0.484375q-0.453125 0.15625 -1.0 0.15625l-2.421875 0zm16.414185 1.515625l0 -2.875q0 -1.1875 -0.265625 -2.09375q-0.265625 -0.90625 -0.78125 -1.53125q-0.515625 -0.625 -1.265625 -0.953125q-0.734375 -0.328125 -1.671875 -0.328125q-0.953125 0 -1.6875 0.328125q-0.734375 0.328125 -1.25 0.953125q-0.515625 0.625 -0.78125 1.53125q-0.265625 0.90625 -0.265625 2.09375l0 2.875q0 1.1875 0.265625 2.09375q0.265625 0.90625 0.78125 1.53125q0.515625 0.625 1.265625 0.953125q0.75 0.3125 1.6875 0.3125q0.9375 0 1.671875 -0.3125q0.75 -0.328125 1.25 -0.953125q0.515625 -0.625 0.78125 -1.53125q0.265625 -0.90625 0.265625 -2.09375zm-6.40625 -0.3125q0 -0.21875 0 -0.421875q0 -0.21875 0 -0.421875l0 -2.0625q0 -0.875 0.171875 -1.53125q0.171875 -0.65625 0.53125 -1.0625q0.296875 -0.328125 0.71875 -0.5q0.4375 -0.171875 1.0 -0.171875q0.546875 0 0.953125 0.15625q0.421875 0.15625 0.71875 0.484375q0.296875 0.3125 0.46875 0.78125q0.171875 0.46875 0.234375 1.078125l-4.796875 3.671875zm4.828125 0.65625q0 0.890625 -0.1875 1.5625q-0.171875 0.671875 -0.5625 1.09375q-0.28125 0.296875 -0.703125 0.46875q-0.40625 0.15625 -0.9375 0.15625q-0.515625 0 -0.921875 -0.140625q-0.40625 -0.15625 -0.6875 -0.453125q-0.3125 -0.296875 -0.515625 -0.765625q-0.1875 -0.46875 -0.265625 -1.09375l4.78125 -3.65625q0 0.234375 0 0.59375q0 0.359375 0 0.484375l0 1.75z" fill-rule="nonzero"/><path fill="#d3e3fc" d="m739.2677 307.16357l41.7323 0l0 44.314972l-41.7323 0z" fill-rule="evenodd"/><path stroke="#595959" stroke-width="1.0" stroke-linejoin="round" stroke-linecap="butt" d="m739.2677 307.16357l41.7323 0l0 44.314972l-41.7323 0z" fill-rule="evenodd"/><path fill="#595959" d="m751.4552 330.52356l2.421875 0q0.828125 -0.015625 1.5625 -0.25q0.75 -0.25 1.3125 -0.71875q0.546875 -0.46875 0.875 -1.140625q0.328125 -0.6875 0.328125 -1.578125q0 -0.890625 -0.328125 -1.5625q-0.328125 -0.6875 -0.875 -1.15625q-0.5625 -0.46875 -1.3125 -0.703125q-0.734375 -0.25 -1.5625 -0.265625l-4.0 0l0 12.3125l1.578125 0l0 -4.9375zm0 -1.296875l0 -4.796875l2.421875 0q0.546875 0 1.0 0.171875q0.46875 0.171875 0.796875 0.484375q0.328125 0.3125 0.515625 0.765625q0.203125 0.453125 0.203125 1.0q0 0.5625 -0.203125 1.0q-0.1875 0.4375 -0.515625 0.734375q-0.34375 0.3125 -0.796875 0.484375q-0.453125 0.15625 -1.0 0.15625l-2.421875 0zm13.757996 6.234375l0 -12.3125l-0.125 0l-4.65625 1.78125l0 1.4375l3.21875 -1.234375l0 10.328125l1.5625 0z" fill-rule="nonzero"/><path fill="#d3e3fc" d="m788.76117 332.2082l41.73224 0l0 44.314972l-41.73224 0z" fill-rule="evenodd"/><path stroke="#595959" stroke-width="1.0" stroke-linejoin="round" stroke-linecap="butt" d="m788.76117 332.2082l41.73224 0l0 44.314972l-41.73224 0z" fill-rule="evenodd"/><path fill="#595959" d="m800.94867 355.56818l2.421875 0q0.828125 -0.015625 1.5625 -0.25q0.75 -0.25 1.3125 -0.71875q0.546875 -0.46875 0.875 -1.140625q0.328125 -0.6875 0.328125 -1.578125q0 -0.890625 -0.328125 -1.5625q-0.328125 -0.6875 -0.875 -1.15625q-0.5625 -0.46875 -1.3125 -0.703125q-0.734375 -0.25 -1.5625 -0.265625l-4.0 0l0 12.3125l1.578125 0l0 -4.9375zm0 -1.296875l0 -4.796875l2.421875 0q0.546875 0 1.0 0.171875q0.46875 0.171875 0.796875 0.484375q0.328125 0.3125 0.515625 0.765625q0.203125 0.453125 0.203125 1.0q0 0.5625 -0.203125 1.0q-0.1875 0.4375 -0.515625 0.734375q-0.34375 0.3125 -0.796875 0.484375q-0.453125 0.15625 -1.0 0.15625l-2.421875 0zm16.24231 6.234375l0 -1.28125l-6.1875 0l3.3125 -3.578125q0.453125 -0.515625 0.875 -1.015625q0.421875 -0.515625 0.75 -1.046875q0.3125 -0.53125 0.5 -1.0625q0.1875 -0.53125 0.1875 -1.078125q0 -0.75 -0.265625 -1.375q-0.265625 -0.625 -0.734375 -1.078125q-0.484375 -0.453125 -1.1875 -0.703125q-0.703125 -0.265625 -1.5625 -0.265625q-0.953125 0 -1.703125 0.3125q-0.734375 0.296875 -1.234375 0.8125q-0.515625 0.515625 -0.796875 1.203125q-0.265625 0.6875 -0.265625 1.46875l1.578125 0q0 -0.578125 0.140625 -1.046875q0.15625 -0.46875 0.453125 -0.796875q0.296875 -0.3125 0.75 -0.484375q0.453125 -0.1875 1.078125 -0.1875q0.5 0 0.90625 0.171875q0.40625 0.171875 0.6875 0.46875q0.28125 0.296875 0.421875 0.703125q0.15625 0.40625 0.15625 0.859375q0 0.375 -0.09375 0.734375q-0.09375 0.34375 -0.3125 0.734375q-0.21875 0.390625 -0.59375 0.859375q-0.359375 0.46875 -0.90625 1.0625l-4.03125 4.484375l0 1.125l8.078125 0z" fill-rule="nonzero"/><path fill="#d3e3fc" d="m838.2546 351.47855l41.7323 0l0 44.31494l-41.7323 0z" fill-rule="evenodd"/><path stroke="#595959" stroke-width="1.0" stroke-linejoin="round" stroke-linecap="butt" d="m838.2546 351.47855l41.7323 0l0 44.31494l-41.7323 0z" fill-rule="evenodd"/><path fill="#595959" d="m850.4421 374.8385l2.421875 0q0.828125 -0.015625 1.5625 -0.25q0.75 -0.25 1.3125 -0.71875q0.546875 -0.46875 0.875 -1.140625q0.328125 -0.6875 0.328125 -1.578125q0 -0.890625 -0.328125 -1.5625q-0.328125 -0.6875 -0.875 -1.15625q-0.5625 -0.46875 -1.3125 -0.703125q-0.734375 -0.25 -1.5625 -0.265625l-4.0 0l0 12.3125l1.578125 0l0 -4.9375zm0 -1.296875l0 -4.796875l2.421875 0q0.546875 0 1.0 0.171875q0.46875 0.171875 0.796875 0.484375q0.328125 0.3125 0.515625 0.765625q0.203125 0.453125 0.203125 1.0q0 0.5625 -0.203125 1.0q-0.1875 0.4375 -0.515625 0.734375q-0.34375 0.3125 -0.796875 0.484375q-0.453125 0.15625 -1.0 0.15625l-2.421875 0zm10.507996 -0.671875l0 1.265625l1.125 0q0.578125 0 1.0625 0.140625q0.484375 0.125 0.84375 0.40625q0.328125 0.28125 0.515625 0.703125q0.203125 0.40625 0.203125 0.984375q0 0.59375 -0.171875 1.015625q-0.171875 0.421875 -0.46875 0.71875q-0.3125 0.28125 -0.75 0.421875q-0.421875 0.140625 -0.953125 0.140625q-0.53125 0 -0.96875 -0.140625q-0.4375 -0.15625 -0.734375 -0.4375q-0.3125 -0.28125 -0.484375 -0.671875q-0.15625 -0.40625 -0.15625 -0.890625l-1.5625 0q0 0.8125 0.296875 1.453125q0.3125 0.625 0.84375 1.0625q0.53125 0.453125 1.234375 0.6875q0.71875 0.21875 1.53125 0.21875q0.828125 0 1.546875 -0.234375q0.71875 -0.25 1.234375 -0.71875q0.53125 -0.453125 0.828125 -1.125q0.296875 -0.671875 0.296875 -1.53125q0 -0.421875 -0.109375 -0.84375q-0.09375 -0.4375 -0.328125 -0.828125q-0.25 -0.390625 -0.65625 -0.703125q-0.390625 -0.3125 -1.0 -0.515625q0.5 -0.203125 0.859375 -0.515625q0.359375 -0.328125 0.59375 -0.6875q0.234375 -0.359375 0.34375 -0.734375q0.109375 -0.375 0.109375 -0.734375q0 -0.859375 -0.28125 -1.5q-0.265625 -0.65625 -0.75 -1.09375q-0.5 -0.453125 -1.1875 -0.671875q-0.671875 -0.21875 -1.5 -0.21875q-0.859375 0 -1.5625 0.265625q-0.703125 0.265625 -1.1875 0.71875q-0.5 0.46875 -0.78125 1.09375q-0.28125 0.609375 -0.28125 1.3125l1.578125 0q0 -0.46875 0.15625 -0.859375q0.171875 -0.390625 0.46875 -0.671875q0.28125 -0.28125 0.6875 -0.421875q0.421875 -0.15625 0.921875 -0.15625q0.515625 0 0.90625 0.140625q0.40625 0.125 0.671875 0.390625q0.28125 0.265625 0.421875 0.671875q0.15625 0.40625 0.15625 0.96875q0 0.453125 -0.171875 0.84375q-0.15625 0.390625 -0.453125 0.671875q-0.3125 0.28125 -0.765625 0.453125q-0.453125 0.15625 -1.046875 0.15625l-1.125 0z" fill-rule="nonzero"/><path fill="#d3e3fc" d="m887.74805 376.52316l41.73224 0l0 44.31494l-41.73224 0z" fill-rule="evenodd"/><path stroke="#595959" stroke-width="1.0" stroke-linejoin="round" stroke-linecap="butt" d="m887.74805 376.52316l41.73224 0l0 44.31494l-41.73224 0z" fill-rule="evenodd"/><path fill="#595959" d="m899.93555 399.88312l2.421875 0q0.828125 -0.015625 1.5625 -0.25q0.75 -0.25 1.3125 -0.71875q0.546875 -0.46875 0.875 -1.140625q0.328125 -0.6875 0.328125 -1.578125q0 -0.890625 -0.328125 -1.5625q-0.328125 -0.6875 -0.875 -1.15625q-0.5625 -0.46875 -1.3125 -0.703125q-0.734375 -0.25 -1.5625 -0.265625l-4.0 0l0 12.3125l1.578125 0l0 -4.9375zm0 -1.296875l0 -4.796875l2.421875 0q0.546875 0 1.0 0.171875q0.46875 0.171875 0.796875 0.484375q0.328125 0.3125 0.515625 0.765625q0.203125 0.453125 0.203125 1.0q0 0.5625 -0.203125 1.0q-0.1875 0.4375 -0.515625 0.734375q-0.34375 0.3125 -0.796875 0.484375q-0.453125 0.15625 -1.0 0.15625l-2.421875 0zm15.02356 2.09375l0 -8.171875l-1.65625 0l-5.515625 8.53125l0 0.921875l5.609375 0l0 2.859375l1.5625 0l0 -2.859375l1.71875 0l0 -1.28125l-1.71875 0zm-5.4375 0l3.625 -5.625l0.25 -0.46875l0 6.09375l-3.875 0z" fill-rule="nonzero"/><path fill="#ffffff" d="m44.12861 46.26378l156.09448 0l0 47.46457l-156.09448 0z" fill-rule="evenodd"/><path stroke="#595959" stroke-width="2.0" stroke-linejoin="round" stroke-linecap="butt" d="m44.12861 46.26378l156.09448 0l0 47.46457l-156.09448 0z" fill-rule="evenodd"/><path fill="#595959" d="m97.60163 56.21544l0 -1.234375l-8.4375 0l0 1.234375l3.515625 0l0 10.140625l1.40625 0l0 -10.140625l3.515625 0zm1.5234375 5.828125l0 0.171875q0 0.921875 0.265625 1.703125q0.265625 0.78125 0.765625 1.359375q0.5 0.578125 1.203125 0.90625q0.71875 0.328125 1.625 0.328125q0.890625 0 1.59375 -0.328125q0.71875 -0.328125 1.21875 -0.90625q0.484375 -0.578125 0.75 -1.359375q0.265625 -0.78125 0.265625 -1.703125l0 -0.171875q0 -0.90625 -0.265625 -1.6875q-0.265625 -0.796875 -0.75 -1.375q-0.5 -0.578125 -1.21875 -0.90625q-0.71875 -0.328125 -1.609375 -0.328125q-0.890625 0 -1.609375 0.328125q-0.703125 0.328125 -1.203125 0.90625q-0.5 0.578125 -0.765625 1.375q-0.265625 0.78125 -0.265625 1.6875zm1.453125 0.171875l0 -0.171875q0 -0.609375 0.140625 -1.171875q0.15625 -0.578125 0.453125 -1.0q0.296875 -0.4375 0.734375 -0.6875q0.453125 -0.25 1.0625 -0.25q0.59375 0 1.046875 0.25q0.453125 0.25 0.75 0.6875q0.296875 0.421875 0.453125 1.0q0.15625 0.5625 0.15625 1.171875l0 0.171875q0 0.625 -0.15625 1.203125q-0.140625 0.5625 -0.4375 0.984375q-0.3125 0.4375 -0.765625 0.6875q-0.4375 0.25 -1.03125 0.25q-0.609375 0 -1.0625 -0.25q-0.453125 -0.25 -0.75 -0.6875q-0.296875 -0.421875 -0.453125 -0.984375q-0.140625 -0.578125 -0.140625 -1.203125zm8.5546875 7.390625l1.4375 0l0 -4.0625q0.15625 0.171875 0.328125 0.3125q0.1875 0.140625 0.390625 0.265625q0.34375 0.1875 0.75 0.28125q0.421875 0.109375 0.90625 0.109375q0.796875 0 1.421875 -0.328125q0.625 -0.328125 1.046875 -0.90625q0.421875 -0.578125 0.640625 -1.359375q0.21875 -0.796875 0.21875 -1.703125l0 -0.15625q0 -0.953125 -0.21875 -1.734375q-0.21875 -0.796875 -0.640625 -1.375q-0.421875 -0.5625 -1.046875 -0.875q-0.625 -0.328125 -1.4375 -0.328125q-0.46875 0 -0.875 0.09375q-0.390625 0.09375 -0.71875 0.28125q-0.234375 0.125 -0.4375 0.3125q-0.203125 0.171875 -0.375 0.390625l-0.078125 -0.921875l-1.3125 0l0 11.703125zm5.6875 -7.546875l0 0.15625q0 0.625 -0.140625 1.1875q-0.125 0.5625 -0.40625 0.984375q-0.28125 0.4375 -0.71875 0.6875q-0.4375 0.25 -1.046875 0.25q-0.375 0 -0.6875 -0.09375q-0.296875 -0.09375 -0.546875 -0.25q-0.21875 -0.140625 -0.390625 -0.34375q-0.171875 -0.203125 -0.3125 -0.4375l0 -4.078125q0.15625 -0.265625 0.34375 -0.484375q0.203125 -0.21875 0.453125 -0.359375q0.21875 -0.15625 0.5 -0.234375q0.296875 -0.078125 0.625 -0.078125q0.609375 0 1.046875 0.25q0.4375 0.25 0.734375 0.671875q0.28125 0.4375 0.40625 1.0q0.140625 0.546875 0.140625 1.171875zm4.1484375 -4.15625l0 1.25l2.875 0l0 5.953125l-2.875 0l0 1.25l7.078125 0l0 -1.25l-2.765625 0l0 -7.203125l-4.3125 0zm2.6875 -2.21875q0 0.34375 0.203125 0.578125q0.21875 0.234375 0.65625 0.234375q0.4375 0 0.65625 -0.234375q0.21875 -0.234375 0.21875 -0.578125q0 -0.203125 -0.0625 -0.359375q-0.0625 -0.171875 -0.1875 -0.28125q-0.109375 -0.09375 -0.265625 -0.15625q-0.15625 -0.0625 -0.359375 -0.0625q-0.203125 0 -0.359375 0.0625q-0.15625 0.0625 -0.265625 0.15625q-0.125 0.125 -0.1875 0.296875q-0.046875 0.15625 -0.046875 0.34375zm10.28907 9.65625q-0.6875 0 -1.140625 -0.265625q-0.453125 -0.28125 -0.734375 -0.71875q-0.28125 -0.421875 -0.40625 -0.96875q-0.109375 -0.546875 -0.109375 -1.09375l0 -0.328125q0 -0.546875 0.109375 -1.078125q0.125 -0.546875 0.40625 -0.984375q0.28125 -0.4375 0.734375 -0.703125q0.46875 -0.265625 1.140625 -0.265625q0.4375 0 0.8125 0.15625q0.375 0.140625 0.65625 0.390625q0.265625 0.265625 0.421875 0.609375q0.171875 0.328125 0.171875 0.71875l1.375 0q0 -0.640625 -0.265625 -1.203125q-0.25 -0.5625 -0.703125 -0.984375q-0.46875 -0.40625 -1.09375 -0.640625q-0.625 -0.234375 -1.375 -0.234375q-0.96875 0 -1.6875 0.34375q-0.71875 0.34375 -1.1875 0.921875q-0.484375 0.578125 -0.734375 1.34375q-0.234375 0.765625 -0.234375 1.609375l0 0.328125q0 0.84375 0.234375 1.609375q0.25 0.75 0.734375 1.328125q0.46875 0.59375 1.1875 0.9375q0.71875 0.34375 1.6875 0.34375q0.671875 0 1.28125 -0.234375q0.625 -0.234375 1.09375 -0.625q0.484375 -0.375 0.765625 -0.890625q0.28125 -0.515625 0.296875 -1.078125l-1.375 0q0 0.359375 -0.1875 0.65625q-0.171875 0.296875 -0.453125 0.515625q-0.296875 0.234375 -0.671875 0.359375q-0.359375 0.125 -0.75 0.125zm20.28125 1.015625l0 -11.375l-0.109375 0l-4.3125 1.65625l0 1.3125l2.984375 -1.125l0 9.53125l1.4375 0z" fill-rule="nonzero"/><path fill="#595959" d="m77.10554 80.793564l2.25 0q0.765625 -0.015625 1.4375 -0.234375q0.6875 -0.234375 1.203125 -0.65625q0.515625 -0.4375 0.8125 -1.0625q0.3125 -0.625 0.3125 -1.453125q0 -0.8125 -0.3125 -1.4375q-0.296875 -0.640625 -0.8125 -1.078125q-0.515625 -0.421875 -1.203125 -0.640625q-0.671875 -0.234375 -1.4375 -0.25l-3.6875 0l0 11.375l1.4375 0l0 -4.5625zm0 -1.1875l0 -4.4375l2.25 0q0.5 0 0.921875 0.15625q0.421875 0.15625 0.734375 0.453125q0.3125 0.28125 0.484375 0.703125q0.171875 0.40625 0.171875 0.921875q0 0.515625 -0.171875 0.921875q-0.171875 0.40625 -0.484375 0.6875q-0.3125 0.28125 -0.734375 0.4375q-0.421875 0.140625 -0.921875 0.15625l-2.25 0zm13.5703125 -2.859375q-0.921875 0 -1.65625 0.40625q-0.71875 0.390625 -1.234375 1.09375l0 -0.21875l-0.0625 -1.125l-1.375 0l0 8.453125l1.453125 0l0 -5.421875q0.140625 -0.390625 0.34375 -0.703125q0.21875 -0.328125 0.515625 -0.546875q0.3125 -0.25 0.734375 -0.375q0.4375 -0.125 0.96875 -0.125q0.421875 0 0.796875 0.046875q0.375 0.03125 0.796875 0.125l0.203125 -1.40625q-0.21875 -0.09375 -0.65625 -0.140625q-0.4375 -0.0625 -0.828125 -0.0625zm3.6484375 4.296875l0 0.171875q0 0.921875 0.265625 1.703125q0.265625 0.78125 0.765625 1.359375q0.5 0.578125 1.203125 0.90625q0.71875 0.328125 1.625 0.328125q0.890625 0 1.59375 -0.328125q0.71875 -0.328125 1.21875 -0.90625q0.484375 -0.578125 0.75 -1.359375q0.265625 -0.78125 0.265625 -1.703125l0 -0.171875q0 -0.90625 -0.265625 -1.6875q-0.265625 -0.796875 -0.75 -1.375q-0.5 -0.578125 -1.21875 -0.90625q-0.71875 -0.328125 -1.609375 -0.328125q-0.890625 0 -1.609375 0.328125q-0.703125 0.328125 -1.203125 0.90625q-0.5 0.578125 -0.765625 1.375q-0.265625 0.78125 -0.265625 1.6875zm1.453125 0.171875l0 -0.171875q0 -0.609375 0.140625 -1.171875q0.15625 -0.578125 0.453125 -1.0q0.296875 -0.4375 0.734375 -0.6875q0.453125 -0.25 1.0625 -0.25q0.59375 0 1.046875 0.25q0.453125 0.25 0.75 0.6875q0.296875 0.421875 0.453125 1.0q0.15625 0.5625 0.15625 1.171875l0 0.171875q0 0.625 -0.15625 1.203125q-0.140625 0.5625 -0.4375 0.984375q-0.3125 0.4375 -0.765625 0.6875q-0.4375 0.25 -1.03125 0.25q-0.609375 0 -1.0625 -0.25q-0.453125 -0.25 -0.75 -0.6875q-0.296875 -0.421875 -0.453125 -0.984375q-0.140625 -0.578125 -0.140625 -1.203125zm8.2890625 -0.15625l0 0.15625q0 0.90625 0.234375 1.703125q0.25 0.78125 0.6875 1.359375q0.4375 0.578125 1.046875 0.90625q0.625 0.328125 1.390625 0.328125q0.78125 0 1.359375 -0.265625q0.59375 -0.265625 1.015625 -0.78125l0.0625 0.890625l1.328125 0l0 -12.0l-1.4375 0l0 4.375q-0.421875 -0.484375 -0.984375 -0.734375q-0.5625 -0.25 -1.328125 -0.25q-0.765625 0 -1.390625 0.328125q-0.625 0.3125 -1.0625 0.875q-0.453125 0.578125 -0.6875 1.375q-0.234375 0.78125 -0.234375 1.734375zm1.4375 0.15625l0 -0.15625q0 -0.625 0.125 -1.171875q0.140625 -0.5625 0.421875 -1.0q0.28125 -0.421875 0.703125 -0.671875q0.4375 -0.25 1.046875 -0.25q0.71875 0 1.1875 0.34375q0.484375 0.328125 0.765625 0.84375l0 3.921875q-0.28125 0.546875 -0.765625 0.875q-0.46875 0.328125 -1.203125 0.328125q-0.59375 0 -1.03125 -0.234375q-0.421875 -0.25 -0.703125 -0.671875q-0.28125 -0.421875 -0.421875 -0.96875q-0.125 -0.5625 -0.125 -1.1875zm14.0078125 4.140625l1.3125 0l0 -8.453125l-1.453125 0l0 6.0625q-0.125 0.265625 -0.296875 0.5q-0.171875 0.234375 -0.40625 0.390625q-0.28125 0.203125 -0.671875 0.328125q-0.375 0.109375 -0.859375 0.109375q-0.421875 0 -0.734375 -0.109375q-0.3125 -0.109375 -0.53125 -0.390625q-0.21875 -0.265625 -0.328125 -0.71875q-0.109375 -0.453125 -0.109375 -1.140625l0 -5.03125l-1.453125 0l0 5.015625q0 0.953125 0.203125 1.625q0.21875 0.671875 0.59375 1.109375q0.390625 0.4375 0.921875 0.65625q0.546875 0.203125 1.203125 0.203125q0.828125 0 1.453125 -0.34375q0.640625 -0.359375 1.0625 -0.984375l0.09375 1.171875zm7.6328125 -1.015625q-0.6875 0 -1.140625 -0.265625q-0.453125 -0.28125 -0.734375 -0.71875q-0.28125 -0.421875 -0.40625 -0.96875q-0.109375 -0.546875 -0.109375 -1.09375l0 -0.328125q0 -0.546875 0.109375 -1.078125q0.125 -0.546875 0.40625 -0.984375q0.28125 -0.4375 0.734375 -0.703125q0.46875 -0.265625 1.140625 -0.265625q0.4375 0 0.8125 0.15625q0.37500763 0.140625 0.6562576 0.390625q0.265625 0.265625 0.421875 0.609375q0.171875 0.328125 0.171875 0.71875l1.375 0q0 -0.640625 -0.265625 -1.203125q-0.25 -0.5625 -0.703125 -0.984375q-0.46875 -0.40625 -1.09375 -0.640625q-0.6250076 -0.234375 -1.3750076 -0.234375q-0.96875 0 -1.6875 0.34375q-0.71875 0.34375 -1.1875 0.921875q-0.484375 0.578125 -0.734375 1.34375q-0.234375 0.765625 -0.234375 1.609375l0 0.328125q0 0.84375 0.234375 1.609375q0.25 0.75 0.734375 1.328125q0.46875 0.59375 1.1875 0.9375q0.71875 0.34375 1.6875 0.34375q0.671875 0 1.2812576 -0.234375q0.625 -0.234375 1.09375 -0.625q0.484375 -0.375 0.765625 -0.890625q0.28125 -0.515625 0.296875 -1.078125l-1.375 0q0 0.359375 -0.1875 0.65625q-0.171875 0.296875 -0.453125 0.515625q-0.296875 0.234375 -0.6718826 0.359375q-0.359375 0.125 -0.75 0.125zm9.72657 1.171875q1.234375 0 2.078125 -0.5q0.84375 -0.5 1.265625 -1.140625l-0.890625 -0.6875q-0.390625 0.515625 -1.0 0.828125q-0.59375 0.3125 -1.375 0.3125q-0.578125 0 -1.0625 -0.21875q-0.484375 -0.21875 -0.828125 -0.59375q-0.34375 -0.359375 -0.53125 -0.828125q-0.1875 -0.46875 -0.25 -1.09375l0 -0.046875l6.046875 0l0 -0.65625q0 -0.875 -0.234375 -1.625q-0.21875 -0.765625 -0.671875 -1.328125q-0.453125 -0.5625 -1.140625 -0.875q-0.671875 -0.3125 -1.59375 -0.3125q-0.71875 0 -1.421875 0.296875q-0.6875 0.296875 -1.21875 0.84375q-0.546875 0.5625 -0.875 1.375q-0.328125 0.8125 -0.328125 1.828125l0 0.328125q0 0.890625 0.296875 1.640625q0.296875 0.75 0.828125 1.296875q0.53125 0.546875 1.265625 0.859375q0.75 0.296875 1.640625 0.296875zm-0.1875 -7.578125q0.5625 0 0.953125 0.203125q0.40625 0.203125 0.671875 0.53125q0.265625 0.328125 0.40625 0.78125q0.15625 0.4375 0.15625 0.828125l0 0.078125l-4.546875 0q0.09375 -0.59375 0.296875 -1.03125q0.21875 -0.453125 0.53125 -0.765625q0.3125 -0.3125 0.703125 -0.46875q0.390625 -0.15625 0.828125 -0.15625zm11.6015625 -1.1875q-0.921875 0 -1.65625 0.40625q-0.71875 0.390625 -1.234375 1.09375l0 -0.21875l-0.0625 -1.125l-1.375 0l0 8.453125l1.453125 0l0 -5.421875q0.140625 -0.390625 0.34375 -0.703125q0.21875 -0.328125 0.515625 -0.546875q0.3125 -0.25 0.734375 -0.375q0.4375 -0.125 0.96875 -0.125q0.421875 0 0.796875 0.046875q0.375 0.03125 0.796875 0.125l0.203125 -1.40625q-0.21875 -0.09375 -0.65625 -0.140625q-0.4375 -0.0625 -0.828125 -0.0625zm18.34375 8.609375l0 -11.375l-0.109375 0l-4.3125 1.65625l0 1.3125l2.984375 -1.125l0 9.53125l1.4375 0z" fill-rule="nonzero"/><path fill="#ffffff" d="m207.98425 47.840736l41.732285 0l0 44.314957l-41.732285 0z" fill-rule="evenodd"/><path stroke="#595959" stroke-width="2.0" stroke-linejoin="round" stroke-linecap="butt" d="m207.98425 47.840736l41.732285 0l0 44.314957l-41.732285 0z" fill-rule="evenodd"/><path fill="#595959" d="m220.17175 71.200714l2.421875 0q0.828125 -0.015625 1.5625 -0.25q0.75 -0.25 1.3125 -0.71875q0.546875 -0.46875 0.875 -1.140625q0.328125 -0.6875 0.328125 -1.578125q0 -0.890625 -0.328125 -1.5625q-0.328125 -0.6875 -0.875 -1.15625q-0.5625 -0.46875 -1.3125 -0.703125q-0.734375 -0.25 -1.5625 -0.265625l-4.0 0l0 12.3125l1.578125 0l0 -4.9375zm0 -1.296875l0 -4.796875l2.421875 0q0.546875 0 1.0 0.171875q0.46875 0.171875 0.796875 0.484375q0.328125 0.3125 0.515625 0.765625q0.203125 0.453125 0.203125 1.0q0 0.5625 -0.203125 1.0q-0.1875 0.4375 -0.515625 0.734375q-0.34375 0.3125 -0.796875 0.484375q-0.453125 0.15625 -1.0 0.15625l-2.421875 0zm16.4142 1.515625l0 -2.875q0 -1.1875 -0.265625 -2.09375q-0.265625 -0.90625 -0.78125 -1.53125q-0.515625 -0.625 -1.265625 -0.953125q-0.734375 -0.328125 -1.671875 -0.328125q-0.953125 0 -1.6875 0.328125q-0.734375 0.328125 -1.25 0.953125q-0.515625 0.625 -0.78125 1.53125q-0.265625 0.90625 -0.265625 2.09375l0 2.875q0 1.1875 0.265625 2.09375q0.265625 0.90625 0.78125 1.53125q0.515625 0.625 1.265625 0.953125q0.75 0.3125 1.6875 0.3125q0.9375 0 1.671875 -0.3125q0.75 -0.328125 1.25 -0.953125q0.515625 -0.625 0.78125 -1.53125q0.265625 -0.90625 0.265625 -2.09375zm-6.40625 -0.3125q0 -0.21875 0 -0.421875q0 -0.21875 0 -0.421875l0 -2.0625q0 -0.875 0.171875 -1.53125q0.171875 -0.65625 0.53125 -1.0625q0.296875 -0.328125 0.71875 -0.5q0.4375 -0.171875 1.0 -0.171875q0.546875 0 0.953125 0.15625q0.421875 0.15625 0.71875 0.484375q0.296875 0.3125 0.46875 0.78125q0.171875 0.46875 0.234375 1.078125l-4.796875 3.671875zm4.828125 0.65625q0 0.890625 -0.1875 1.5625q-0.171875 0.671875 -0.5625 1.09375q-0.28125 0.296875 -0.703125 0.46875q-0.40625 0.15625 -0.9375 0.15625q-0.515625 0 -0.921875 -0.140625q-0.40625 -0.15625 -0.6875 -0.453125q-0.3125 -0.296875 -0.515625 -0.765625q-0.1875 -0.46875 -0.265625 -1.09375l4.78125 -3.65625q0 0.234375 0 0.59375q0 0.359375 0 0.484375l0 1.75z" fill-rule="nonzero"/><path fill="#ffffff" d="m192.46194 100.70688l41.732285 0l0 44.314957l-41.732285 0z" fill-rule="evenodd"/><path stroke="#595959" stroke-width="2.0" stroke-linejoin="round" stroke-linecap="butt" d="m192.46194 100.70688l41.732285 0l0 44.314957l-41.732285 0z" fill-rule="evenodd"/><path fill="#595959" d="m204.64944 124.06686l2.421875 0q0.828125 -0.015625 1.5625 -0.25q0.75 -0.25 1.3125 -0.71875q0.546875 -0.46875 0.875 -1.140625q0.328125 -0.6875 0.328125 -1.578125q0 -0.890625 -0.328125 -1.5625q-0.328125 -0.6875 -0.875 -1.15625q-0.5625 -0.46875 -1.3125 -0.703125q-0.734375 -0.25 -1.5625 -0.265625l-4.0 0l0 12.312508l1.578125 0l0 -4.9375076zm0 -1.296875l0 -4.796875l2.421875 0q0.546875 0 1.0 0.171875q0.46875 0.171875 0.796875 0.484375q0.328125 0.3125 0.515625 0.765625q0.203125 0.453125 0.203125 1.0q0 0.5625 -0.203125 1.0q-0.1875 0.4375 -0.515625 0.734375q-0.34375 0.3125 -0.796875 0.484375q-0.453125 0.15625 -1.0 0.15625l-2.421875 0zm13.75795 6.2343826l0 -12.312508l-0.125 0l-4.65625 1.78125l0 1.4375l3.21875 -1.234375l0 10.328133l1.5625 0z" fill-rule="nonzero"/><path fill="#ffffff" d="m140.55118 124.192444l41.732285 0l0 44.314957l-41.732285 0z" fill-rule="evenodd"/><path stroke="#595959" stroke-width="2.0" stroke-linejoin="round" stroke-linecap="butt" d="m140.55118 124.192444l41.732285 0l0 44.314957l-41.732285 0z" fill-rule="evenodd"/><path fill="#595959" d="m152.73868 147.55243l2.421875 0q0.828125 -0.015625 1.5625 -0.25q0.75 -0.25 1.3125 -0.71875q0.546875 -0.46875 0.875 -1.140625q0.328125 -0.6875 0.328125 -1.578125q0 -0.890625 -0.328125 -1.5625q-0.328125 -0.6875 -0.875 -1.15625q-0.5625 -0.46875 -1.3125 -0.703125q-0.734375 -0.25 -1.5625 -0.265625l-4.0 0l0 12.3125l1.578125 0l0 -4.9375zm0 -1.296875l0 -4.796875l2.421875 0q0.546875 0 1.0 0.171875q0.46875 0.171875 0.796875 0.484375q0.328125 0.3125 0.515625 0.765625q0.203125 0.453125 0.203125 1.0q0 0.5625 -0.203125 1.0q-0.1875 0.4375 -0.515625 0.734375q-0.34375 0.3125 -0.796875 0.484375q-0.453125 0.15625 -1.0 0.15625l-2.421875 0zm16.242325 6.234375l0 -1.28125l-6.1875 0l3.3125 -3.578125q0.453125 -0.515625 0.875 -1.015625q0.421875 -0.515625 0.75 -1.046875q0.3125 -0.53125 0.5 -1.0625q0.1875 -0.53125 0.1875 -1.078125q0 -0.75 -0.265625 -1.375q-0.265625 -0.625 -0.734375 -1.078125q-0.484375 -0.453125 -1.1875 -0.703125q-0.703125 -0.265625 -1.5625 -0.265625q-0.953125 0 -1.703125 0.3125q-0.734375 0.296875 -1.234375 0.8125q-0.515625 0.515625 -0.796875 1.203125q-0.265625 0.6875 -0.265625 1.46875l1.578125 0q0 -0.578125 0.140625 -1.046875q0.15625 -0.46875 0.453125 -0.796875q0.296875 -0.3125 0.75 -0.484375q0.453125 -0.1875 1.078125 -0.1875q0.5 0 0.90625 0.171875q0.40625 0.171875 0.6875 0.46875q0.28125 0.296875 0.421875 0.703125q0.15625 0.40625 0.15625 0.859375q0 0.375 -0.09375 0.734375q-0.09375 0.34375 -0.3125 0.734375q-0.21875 0.390625 -0.59375 0.859375q-0.359375 0.46875 -0.90625 1.0625l-4.03125 4.484375l0 1.125l8.078125 0z" fill-rule="nonzero"/><path fill="#ffffff" d="m88.64304 145.02184l41.732292 0l0 44.314957l-41.732292 0z" fill-rule="evenodd"/><path stroke="#595959" stroke-width="2.0" stroke-linejoin="round" stroke-linecap="butt" d="m88.64304 145.02184l41.732292 0l0 44.314957l-41.732292 0z" fill-rule="evenodd"/><path fill="#595959" d="m100.83054 168.38182l2.421875 0q0.828125 -0.015625 1.5625 -0.25q0.75 -0.25 1.3125 -0.71875q0.546875 -0.46875 0.875 -1.140625q0.328125 -0.6875 0.328125 -1.578125q0 -0.890625 -0.328125 -1.5625q-0.328125 -0.6875 -0.875 -1.15625q-0.5625 -0.46875 -1.3125 -0.703125q-0.734375 -0.25 -1.5625 -0.265625l-4.0 0l0 12.3125l1.578125 0l0 -4.9375zm0 -1.296875l0 -4.796875l2.421875 0q0.546875 0 1.0 0.171875q0.46875 0.171875 0.796875 0.484375q0.328125 0.3125 0.515625 0.765625q0.203125 0.453125 0.203125 1.0q0 0.5625 -0.203125 1.0q-0.1875 0.4375 -0.515625 0.734375q-0.34375 0.3125 -0.796875 0.484375q-0.453125 0.15625 -1.0 0.15625l-2.421875 0zm10.50795 -0.671875l0 1.265625l1.125 0q0.578125 0 1.0625 0.140625q0.484375 0.125 0.84375 0.40625q0.328125 0.28125 0.515625 0.703125q0.203125 0.40625 0.203125 0.984375q0 0.59375 -0.171875 1.015625q-0.171875 0.421875 -0.46875 0.71875q-0.3125 0.28125 -0.75 0.421875q-0.421875 0.140625 -0.953125 0.140625q-0.53125 0 -0.96875 -0.140625q-0.4375 -0.15625 -0.734375 -0.4375q-0.3125 -0.28125 -0.484375 -0.671875q-0.15625 -0.40625 -0.15625 -0.890625l-1.5625 0q0 0.8125 0.296875 1.453125q0.3125 0.625 0.84375 1.0625q0.53125 0.453125 1.234375 0.6875q0.71875 0.21875 1.53125 0.21875q0.828125 0 1.546875 -0.234375q0.71875 -0.25 1.234375 -0.71875q0.53125 -0.453125 0.828125 -1.125q0.296875 -0.671875 0.296875 -1.53125q0 -0.421875 -0.109375 -0.84375q-0.09375 -0.4375 -0.328125 -0.828125q-0.25 -0.390625 -0.65625 -0.703125q-0.390625 -0.3125 -1.0 -0.515625q0.5 -0.203125 0.859375 -0.515625q0.359375 -0.328125 0.59375 -0.6875q0.234375 -0.359375 0.34375 -0.734375q0.109375 -0.375 0.109375 -0.734375q0 -0.859375 -0.28125 -1.5q-0.265625 -0.65625 -0.75 -1.09375q-0.5 -0.453125 -1.1875 -0.671875q-0.671875 -0.21875 -1.5 -0.21875q-0.859375 0 -1.5625 0.265625q-0.703125 0.265625 -1.1875 0.71875q-0.5 0.46875 -0.78125 1.09375q-0.28125 0.609375 -0.28125 1.3125l1.578125 0q0 -0.46875 0.15625 -0.859375q0.171875 -0.390625 0.46875 -0.671875q0.28125 -0.28125 0.6875 -0.421875q0.421875 -0.15625 0.921875 -0.15625q0.515625 0 0.90625 0.140625q0.40625 0.125 0.671875 0.390625q0.28125 0.265625 0.421875 0.671875q0.15625 0.40625 0.15625 0.96875q0 0.453125 -0.171875 0.84375q-0.15625 0.390625 -0.453125 0.671875q-0.3125 0.28125 -0.765625 0.453125q-0.453125 0.15625 -1.046875 0.15625l-1.125 0z" fill-rule="nonzero"/><path fill="#ffffff" d="m38.472443 168.5074l41.732285 0l0 44.314957l-41.732285 0z" fill-rule="evenodd"/><path stroke="#595959" stroke-width="2.0" stroke-linejoin="round" stroke-linecap="butt" d="m38.472443 168.5074l41.732285 0l0 44.314957l-41.732285 0z" fill-rule="evenodd"/><path fill="#595959" d="m50.659943 191.86739l2.421875 0q0.828125 -0.015625 1.5625 -0.25q0.75 -0.25 1.3125 -0.71875q0.546875 -0.46875 0.875 -1.140625q0.328125 -0.6875 0.328125 -1.578125q0 -0.890625 -0.328125 -1.5625q-0.328125 -0.6875 -0.875 -1.15625q-0.5625 -0.46875 -1.3125 -0.703125q-0.734375 -0.25 -1.5625 -0.265625l-4.0 0l0 12.3125l1.578125 0l0 -4.9375zm0 -1.296875l0 -4.796875l2.421875 0q0.546875 0 1.0 0.171875q0.46875 0.171875 0.796875 0.484375q0.328125 0.3125 0.515625 0.765625q0.203125 0.453125 0.203125 1.0q0 0.5625 -0.203125 1.0q-0.1875 0.4375 -0.515625 0.734375q-0.34375 0.3125 -0.796875 0.484375q-0.453125 0.15625 -1.0 0.15625l-2.421875 0zm15.023575 2.09375l0 -8.171875l-1.65625 0l-5.515625 8.53125l0 0.921875l5.609375 0l0 2.859375l1.5625 0l0 -2.859375l1.71875 0l0 -1.28125l-1.71875 0zm-5.4375 0l3.625 -5.625l0.25 -0.46875l0 6.09375l-3.875 0z" fill-rule="nonzero"/><path fill="#000000" fill-opacity="0.0" d="m739.2677 329.32104l-119.39917 0l0 -77.00787l-119.40396 0" fill-rule="evenodd"/><path stroke="#4285f4" stroke-width="2.0" stroke-linejoin="round" stroke-linecap="butt" d="m739.2677 329.32104l-119.39917 0l0 -77.00787l-107.40399 0" fill-rule="evenodd"/><path fill="#4285f4" stroke="#4285f4" stroke-width="2.0" stroke-linecap="butt" d="m512.46454 249.0097l-9.076172 3.3034668l9.076172 3.3034668z" fill-rule="evenodd"/><path fill="#000000" fill-opacity="0.0" d="m788.76117 354.36566l-144.14752 0l0 54.582672l-144.13596 0" fill-rule="evenodd"/><path stroke="#4285f4" stroke-width="2.0" stroke-linejoin="round" stroke-linecap="butt" d="m788.76117 354.3657l-144.14752 0l0 54.582672l-132.13599 0" fill-rule="evenodd"/><path fill="#4285f4" stroke="#4285f4" stroke-width="2.0" stroke-linecap="butt" d="m512.47766 405.6449l-9.076172 3.3034668l9.076172 3.3034668z" fill-rule="evenodd"/><path fill="#000000" fill-opacity="0.0" d="m887.74805 398.68063l-193.4408 0l0 -91.33859l-193.42535 0" fill-rule="evenodd"/><path stroke="#4285f4" stroke-width="2.0" stroke-linejoin="round" stroke-linecap="butt" d="m887.74805 398.68066l-193.4408 0l0 -91.33862l-181.42535 0" fill-rule="evenodd"/><path fill="#4285f4" stroke="#4285f4" stroke-width="2.0" stroke-linecap="butt" d="m512.8819 304.03857l-9.076202 3.3034668l9.076202 3.3034668z" fill-rule="evenodd"/><path fill="#000000" fill-opacity="0.0" d="m249.71654 69.998215l104.708664 0l0 25.70079l104.70865 0" fill-rule="evenodd"/><path stroke="#595959" stroke-width="2.0" stroke-linejoin="round" stroke-linecap="butt" d="m249.71654 69.998215l104.708664 0l0 25.70079l92.70865 0" fill-rule="evenodd"/><path fill="#595959" stroke="#595959" stroke-width="2.0" stroke-linecap="butt" d="m447.13385 99.00247l9.076202 -3.3034668l-9.076202 -3.3034668z" fill-rule="evenodd"/><path fill="#000000" fill-opacity="0.0" d="m234.19423 122.86436l112.26994 0l0 129.44882l112.26547 0" fill-rule="evenodd"/><path stroke="#595959" stroke-width="2.0" stroke-linejoin="round" stroke-linecap="butt" d="m234.19423 122.86436l112.26997 0l0 129.44882l100.26544 0" fill-rule="evenodd"/><path fill="#595959" stroke="#595959" stroke-width="2.0" stroke-linecap="butt" d="m446.72964 255.61664l9.076202 -3.3034668l-9.076202 -3.3034668z" fill-rule="evenodd"/><path fill="#000000" fill-opacity="0.0" d="m161.41733 168.5074l0 240.44093l297.3228 0" fill-rule="evenodd"/><path stroke="#595959" stroke-width="2.0" stroke-linejoin="round" stroke-linecap="butt" d="m161.41733 168.5074l0 240.44096l285.3228 0" fill-rule="evenodd"/><path fill="#595959" stroke="#595959" stroke-width="2.0" stroke-linecap="butt" d="m446.74014 412.25183l9.076202 -3.3034668l-9.076202 -3.3034668z" fill-rule="evenodd"/><path fill="#000000" fill-opacity="0.0" d="m109.509186 189.33679l0 24.999985l185.44534 0l0 -63.61415l164.5704 0" fill-rule="evenodd"/><path stroke="#595959" stroke-width="2.0" stroke-linejoin="round" stroke-linecap="butt" d="m109.509186 189.33679l0 24.999985l185.44534 0l0 -63.61415l152.5704 0" fill-rule="evenodd"/><path fill="#595959" stroke="#595959" stroke-width="2.0" stroke-linecap="butt" d="m447.52493 154.0261l9.076202 -3.3034668l-9.076202 -3.3034668z" fill-rule="evenodd"/><path fill="#000000" fill-opacity="0.0" d="m59.33858 212.82236l0 94.519684l399.811 0" fill-rule="evenodd"/><path stroke="#595959" stroke-width="2.0" stroke-linejoin="round" stroke-linecap="butt" d="m59.33858 212.82236l0 94.519684l387.811 0" fill-rule="evenodd"/><path fill="#595959" stroke="#595959" stroke-width="2.0" stroke-linecap="butt" d="m447.1496 310.6455l9.076202 -3.3034668l-9.076202 -3.3034668z" fill-rule="evenodd"/></g></svg>